STARTFONT 2.1
COMMENT
COMMENT Converted from OpenType font "BeVietnam-Thin.ttf" by "otf2bdf 3.0".
COMMENT
FONT -FreeType-Be Vietnam Thin-Medium-R-Normal--28-200-100-100-P-122-ISO10646-1
SIZE 20 100 100
FONTBOUNDINGBOX 43 36 -9 -7
STARTPROPERTIES 19
FOUNDRY "FreeType"
FAMILY_NAME "Be Vietnam Thin"
WEIGHT_NAME "Medium"
SLANT "R"
SETWIDTH_NAME "Normal"
ADD_STYLE_NAME ""
PIXEL_SIZE 28
POINT_SIZE 200
RESOLUTION_X 100
RESOLUTION_Y 100
SPACING "P"
AVERAGE_WIDTH 122
CHARSET_REGISTRY "ISO10646"
CHARSET_ENCODING "1"
FONT_ASCENT 33
FONT_DESCENT 7
COPYRIGHT "Copyright 2019 The Bevietnam Project Authors (https://github.com/bettergui/beVietnam)"
_OTF_FONTFILE "BeVietnam-Thin.ttf"
_OTF_PSNAME "BeVietnam-Thin"
ENDPROPERTIES
CHARS 445
STARTCHAR 000D
ENCODING 13
SWIDTH 576 0
DWIDTH 16 0
BBX 0 0 0 0
BITMAP
ENDCHAR
STARTCHAR 0020
ENCODING 32
SWIDTH 216 0
DWIDTH 6 0
BBX 0 0 0 0
BITMAP
ENDCHAR
STARTCHAR 0021
ENCODING 33
SWIDTH 180 0
DWIDTH 5 0
BBX 2 22 2 0
BITMAP
C0
C0
C0
C0
C0
C0
C0
C0
C0
80
80
80
80
80
80
80
80
80
00
00
C0
C0
ENDCHAR
STARTCHAR 0022
ENCODING 34
SWIDTH 468 0
DWIDTH 13 0
BBX 8 6 3 15
BITMAP
20
41
82
82
C3
E3
ENDCHAR
STARTCHAR 0023
ENCODING 35
SWIDTH 864 0
DWIDTH 24 0
BBX 20 19 2 0
BITMAP
008100
008100
010100
010200
010200
7FFFF0
010200
020200
020400
020400
020400
060400
FFFFE0
040800
040800
040800
080800
081000
081000
ENDCHAR
STARTCHAR 0024
ENCODING 36
SWIDTH 540 0
DWIDTH 15 0
BBX 13 23 1 -2
BITMAP
0200
0200
1FC0
3220
6230
4210
4210
4200
4200
6200
3A00
07C0
0220
0210
0208
8208
4208
4210
2210
3220
0FC0
0200
0200
ENDCHAR
STARTCHAR 0025
ENCODING 37
SWIDTH 828 0
DWIDTH 23 0
BBX 22 20 1 0
BITMAP
380000
440100
820200
820200
820400
820400
820800
6C0800
101000
001000
002000
002000
004070
004188
008104
008104
010104
010104
02010C
0200F8
ENDCHAR
STARTCHAR 0026
ENCODING 38
SWIDTH 576 0
DWIDTH 16 0
BBX 16 20 2 0
BITMAP
0380
0C60
0810
1010
1008
1008
1000
0800
0400
0200
1F00
2104
4088
8048
8030
8030
8028
4044
6086
3F03
ENDCHAR
STARTCHAR 0027
ENCODING 39
SWIDTH 288 0
DWIDTH 8 0
BBX 2 5 3 16
BITMAP
C0
C0
40
40
80
ENDCHAR
STARTCHAR 0028
ENCODING 40
SWIDTH 396 0
DWIDTH 11 0
BBX 7 28 3 -6
BITMAP
02
04
08
18
10
20
20
60
40
40
C0
C0
C0
C0
C0
C0
C0
C0
40
40
40
20
20
10
10
08
04
02
ENDCHAR
STARTCHAR 0029
ENCODING 41
SWIDTH 396 0
DWIDTH 11 0
BBX 7 27 2 -5
BITMAP
C0
60
20
10
08
08
0C
04
04
04
06
06
06
06
06
06
04
04
04
0C
08
08
10
30
20
40
80
ENDCHAR
STARTCHAR 002A
ENCODING 42
SWIDTH 468 0
DWIDTH 13 0
BBX 9 11 2 11
BITMAP
0C00
0C00
0880
E980
3B00
0C00
3B00
E980
0880
0C00
0C00
ENDCHAR
STARTCHAR 002B
ENCODING 43
SWIDTH 540 0
DWIDTH 15 0
BBX 10 10 3 4
BITMAP
0800
0800
0800
0800
0800
FFC0
0800
0800
0800
0800
ENDCHAR
STARTCHAR 002C
ENCODING 44
SWIDTH 252 0
DWIDTH 7 0
BBX 3 6 2 -4
BITMAP
E0
E0
20
20
40
80
ENDCHAR
STARTCHAR 002D
ENCODING 45
SWIDTH 576 0
DWIDTH 16 0
BBX 11 1 3 8
BITMAP
FFE0
ENDCHAR
STARTCHAR 002E
ENCODING 46
SWIDTH 216 0
DWIDTH 6 0
BBX 2 2 2 0
BITMAP
C0
C0
ENDCHAR
STARTCHAR 002F
ENCODING 47
SWIDTH 468 0
DWIDTH 13 0
BBX 11 26 2 -3
BITMAP
0020
0040
0040
0040
0080
0080
0100
0100
0100
0200
0200
0200
0400
0400
0C00
0800
0800
1000
1000
1000
2000
2000
2000
4000
4000
8000
ENDCHAR
STARTCHAR 0030
ENCODING 48
SWIDTH 576 0
DWIDTH 16 0
BBX 13 20 2 0
BITMAP
0F00
30C0
4020
4010
8010
8010
8010
8008
8008
8008
8008
8008
8008
8008
8010
8010
4010
4020
2040
1F80
ENDCHAR
STARTCHAR 0031
ENCODING 49
SWIDTH 432 0
DWIDTH 12 0
BBX 8 19 3 0
BITMAP
18
28
48
88
08
08
08
08
08
08
08
08
08
08
08
08
08
08
FF
ENDCHAR
STARTCHAR 0032
ENCODING 50
SWIDTH 540 0
DWIDTH 15 0
BBX 13 20 2 0
BITMAP
0F80
3060
2020
4010
4010
4010
0010
0010
0010
0020
0060
0040
0080
0300
0600
0C00
1800
2000
4000
FFF8
ENDCHAR
STARTCHAR 0033
ENCODING 51
SWIDTH 576 0
DWIDTH 16 0
BBX 11 20 3 0
BITMAP
1F00
60C0
4040
8020
0020
0020
0020
0020
0040
0380
1F80
0040
0020
0020
0020
0020
8020
8020
4040
3F80
ENDCHAR
STARTCHAR 0034
ENCODING 52
SWIDTH 576 0
DWIDTH 16 0
BBX 13 19 2 0
BITMAP
00C0
0140
0340
0240
0440
0C40
0840
1040
2040
2040
4040
8040
8040
FFF8
0040
0040
0040
0040
0040
ENDCHAR
STARTCHAR 0035
ENCODING 53
SWIDTH 576 0
DWIDTH 16 0
BBX 12 19 3 0
BITMAP
7FE0
8000
8000
8000
8000
8000
9F80
A040
C020
8010
0010
0010
0010
0010
0010
8030
4020
60C0
1F00
ENDCHAR
STARTCHAR 0036
ENCODING 54
SWIDTH 576 0
DWIDTH 16 0
BBX 12 19 2 0
BITMAP
0200
0400
0400
0800
1000
3000
2000
5F80
6060
C020
C010
8010
8010
8010
8010
8010
4020
2060
1F80
ENDCHAR
STARTCHAR 0037
ENCODING 55
SWIDTH 468 0
DWIDTH 13 0
BBX 11 19 1 0
BITMAP
FFE0
0020
0060
0040
0040
0080
0080
0100
0100
0100
0200
0200
0400
0400
0400
0800
0800
1000
1000
ENDCHAR
STARTCHAR 0038
ENCODING 56
SWIDTH 612 0
DWIDTH 17 0
BBX 13 20 2 0
BITMAP
0F80
1060
2020
4010
4010
4010
4010
4010
2020
1FC0
3060
4010
8008
8008
8008
8008
8008
4010
6030
1FC0
ENDCHAR
STARTCHAR 0039
ENCODING 57
SWIDTH 576 0
DWIDTH 16 0
BBX 12 20 2 0
BITMAP
0F00
30C0
4020
4010
8010
8010
8010
8010
8010
4030
6030
38E0
0720
0040
00C0
0080
0100
0300
0200
0400
ENDCHAR
STARTCHAR 003A
ENCODING 58
SWIDTH 252 0
DWIDTH 7 0
BBX 2 14 2 0
BITMAP
C0
80
00
00
00
00
00
00
00
00
00
00
C0
C0
ENDCHAR
STARTCHAR 003B
ENCODING 59
SWIDTH 252 0
DWIDTH 7 0
BBX 3 18 2 -4
BITMAP
C0
40
00
00
00
00
00
00
00
00
00
00
E0
E0
20
20
40
80
ENDCHAR
STARTCHAR 003C
ENCODING 60
SWIDTH 540 0
DWIDTH 15 0
BBX 10 11 3 4
BITMAP
0040
0180
0600
1800
2000
C000
C000
3000
0C00
0300
00C0
ENDCHAR
STARTCHAR 003D
ENCODING 61
SWIDTH 684 0
DWIDTH 19 0
BBX 13 8 3 5
BITMAP
FFF8
0000
0000
0000
0000
0000
0000
FFF8
ENDCHAR
STARTCHAR 003E
ENCODING 62
SWIDTH 540 0
DWIDTH 15 0
BBX 10 11 3 4
BITMAP
8000
6000
3000
0C00
0300
00C0
0180
0600
0800
3000
C000
ENDCHAR
STARTCHAR 003F
ENCODING 63
SWIDTH 576 0
DWIDTH 16 0
BBX 12 20 2 0
BITMAP
0F80
3040
4020
8010
8010
8010
0010
0010
0020
0040
0080
0100
0200
0200
0400
0000
0000
0000
0400
0600
ENDCHAR
STARTCHAR 0040
ENCODING 64
SWIDTH 1008 0
DWIDTH 28 0
BBX 24 25 2 -5
BITMAP
007C00
03C3C0
060030
180018
10000C
200004
400002
40FA02
C10601
810201
820201
820201
820201
820201
820301
810302
418484
40F878
400000
200000
100000
080000
060000
01E000
000FF8
ENDCHAR
STARTCHAR 0041
ENCODING 65
SWIDTH 684 0
DWIDTH 19 0
BBX 15 19 2 0
BITMAP
0100
0280
0280
0440
0440
0440
0820
0820
1010
1010
1010
2008
3FF8
2008
4004
4004
8002
8002
8002
ENDCHAR
STARTCHAR 0042
ENCODING 66
SWIDTH 612 0
DWIDTH 17 0
BBX 13 19 3 0
BITMAP
FFC0
8020
8010
8010
8010
8010
8010
8020
81C0
FFE0
8010
8008
8008
8008
8008
8008
8010
8020
FFC0
ENDCHAR
STARTCHAR 0043
ENCODING 67
SWIDTH 720 0
DWIDTH 20 0
BBX 17 20 2 0
BITMAP
03E000
0C1800
300600
200200
400100
400100
800080
800000
800000
800000
800000
800000
800000
800000
400100
400100
600200
300600
180C00
07F000
ENDCHAR
STARTCHAR 0044
ENCODING 68
SWIDTH 684 0
DWIDTH 19 0
BBX 15 19 3 0
BITMAP
FFC0
8030
8018
8008
8004
8004
8002
8002
8002
8002
8002
8002
8006
8004
8004
8008
8010
8060
FF80
ENDCHAR
STARTCHAR 0045
ENCODING 69
SWIDTH 540 0
DWIDTH 15 0
BBX 11 19 3 0
BITMAP
FFE0
8000
8000
8000
8000
8000
8000
8000
8000
FF80
8000
8000
8000
8000
8000
8000
8000
8000
FFE0
ENDCHAR
STARTCHAR 0046
ENCODING 70
SWIDTH 504 0
DWIDTH 14 0
BBX 10 19 3 0
BITMAP
FFC0
8000
8000
8000
8000
8000
8000
8000
8000
FF80
8000
8000
8000
8000
8000
8000
8000
8000
8000
ENDCHAR
STARTCHAR 0047
ENCODING 71
SWIDTH 684 0
DWIDTH 19 0
BBX 16 20 2 0
BITMAP
03E0
1C18
3004
2002
4002
4001
8000
8000
8000
8000
80FF
8001
8001
8001
8001
4003
6003
2005
1819
07F1
ENDCHAR
STARTCHAR 0048
ENCODING 72
SWIDTH 648 0
DWIDTH 18 0
BBX 13 19 3 0
BITMAP
8008
8008
8008
8008
8008
8008
8008
8008
8008
FFF8
8008
8008
8008
8008
8008
8008
8008
8008
8008
ENDCHAR
STARTCHAR 0049
ENCODING 73
SWIDTH 216 0
DWIDTH 6 0
BBX 1 19 3 0
BITMAP
80
80
80
80
80
80
80
80
80
80
80
80
80
80
80
80
80
80
80
ENDCHAR
STARTCHAR 004A
ENCODING 74
SWIDTH 324 0
DWIDTH 9 0
BBX 4 19 2 0
BITMAP
10
10
10
10
10
10
10
10
10
10
10
10
10
10
10
10
10
10
E0
ENDCHAR
STARTCHAR 004B
ENCODING 75
SWIDTH 576 0
DWIDTH 16 0
BBX 12 19 2 0
BITMAP
8060
80C0
8180
8100
8200
8400
8800
9000
B000
D800
8C00
8400
8200
8100
8080
80C0
8060
8020
8010
ENDCHAR
STARTCHAR 004C
ENCODING 76
SWIDTH 504 0
DWIDTH 14 0
BBX 10 19 3 0
BITMAP
8000
8000
8000
8000
8000
8000
8000
8000
8000
8000
8000
8000
8000
8000
8000
8000
8000
8000
FFC0
ENDCHAR
STARTCHAR 004D
ENCODING 77
SWIDTH 792 0
DWIDTH 22 0
BBX 17 19 3 0
BITMAP
800180
C00180
C00280
E00280
A00680
A00480
900480
900880
980880
881880
881080
841080
842080
862080
826080
824080
814080
818080
808080
ENDCHAR
STARTCHAR 004E
ENCODING 78
SWIDTH 720 0
DWIDTH 20 0
BBX 14 19 3 0
BITMAP
8004
C004
A004
A004
9004
8804
8C04
8404
8204
8104
8184
8084
8044
8024
8024
8014
800C
800C
8004
ENDCHAR
STARTCHAR 004F
ENCODING 79
SWIDTH 720 0
DWIDTH 20 0
BBX 17 20 2 0
BITMAP
03E000
0C1800
300400
200200
400100
C00100
800080
800080
800080
800080
800080
800080
800080
800080
800100
400100
600200
300600
180C00
07F000
ENDCHAR
STARTCHAR 0050
ENCODING 80
SWIDTH 576 0
DWIDTH 16 0
BBX 12 19 3 0
BITMAP
FF80
8060
8020
8010
8010
8010
8010
8010
8020
8020
80C0
FF00
8000
8000
8000
8000
8000
8000
8000
ENDCHAR
STARTCHAR 0051
ENCODING 81
SWIDTH 720 0
DWIDTH 20 0
BBX 17 22 2 -2
BITMAP
03E000
0C1800
300400
200200
400100
C00100
800080
800080
800080
800080
800080
800080
800080
80C080
804100
402100
601200
300E00
180C00
07F600
000200
000100
ENDCHAR
STARTCHAR 0052
ENCODING 82
SWIDTH 576 0
DWIDTH 16 0
BBX 12 19 3 0
BITMAP
FFC0
8060
8020
8010
8010
8010
8010
8020
8020
83C0
FE00
8200
8200
8100
8080
80C0
8040
8020
8030
ENDCHAR
STARTCHAR 0053
ENCODING 83
SWIDTH 576 0
DWIDTH 16 0
BBX 13 20 2 0
BITMAP
0F80
30C0
4020
C010
8010
8008
8000
4000
6000
1E00
01C0
0030
0010
0008
8008
8008
8018
4010
2020
1FC0
ENDCHAR
STARTCHAR 0054
ENCODING 84
SWIDTH 576 0
DWIDTH 16 0
BBX 14 19 1 0
BITMAP
FFFC
0100
0100
0100
0100
0100
0100
0100
0100
0100
0100
0100
0100
0100
0100
0100
0100
0100
0100
ENDCHAR
STARTCHAR 0055
ENCODING 85
SWIDTH 648 0
DWIDTH 18 0
BBX 15 19 2 0
BITMAP
8002
8002
8002
8002
8002
8002
8002
8002
8002
8002
8002
8002
8002
8002
4004
4004
2008
3018
0FE0
ENDCHAR
STARTCHAR 0056
ENCODING 86
SWIDTH 576 0
DWIDTH 16 0
BBX 15 19 1 0
BITMAP
8002
8002
4004
4004
4004
2008
2008
2008
1010
1010
0820
0820
0820
0440
0440
0440
0280
0280
0380
ENDCHAR
STARTCHAR 0057
ENCODING 87
SWIDTH 972 0
DWIDTH 27 0
BBX 26 19 1 0
BITMAP
800C0040
800C0080
80140080
40120080
40120080
40220100
40210100
20210100
20410200
20408200
10408200
10808200
10804400
10804400
09004400
09002400
0A002800
06002800
06001800
ENDCHAR
STARTCHAR 0058
ENCODING 88
SWIDTH 612 0
DWIDTH 17 0
BBX 14 19 2 0
BITMAP
8004
4008
6010
2030
1020
1840
08C0
0480
0300
0300
0580
0480
0840
1060
3020
2010
4018
C008
8004
ENDCHAR
STARTCHAR 0059
ENCODING 89
SWIDTH 576 0
DWIDTH 16 0
BBX 12 19 2 0
BITMAP
8010
8010
4020
4060
2040
20C0
1080
1980
0900
0F00
0600
0600
0400
0400
0400
0400
0400
0400
0400
ENDCHAR
STARTCHAR 005A
ENCODING 90
SWIDTH 576 0
DWIDTH 16 0
BBX 13 19 2 0
BITMAP
FFF8
0010
0020
0060
0040
0080
0180
0100
0200
0600
0400
0800
1800
1000
2000
6000
4000
8000
FFF8
ENDCHAR
STARTCHAR 005B
ENCODING 91
SWIDTH 396 0
DWIDTH 11 0
BBX 7 26 2 -4
BITMAP
FE
80
80
80
80
80
80
80
80
80
80
80
80
80
80
80
80
80
80
80
80
80
80
80
80
FE
ENDCHAR
STARTCHAR 005C
ENCODING 92
SWIDTH 468 0
DWIDTH 13 0
BBX 10 26 1 -3
BITMAP
8000
8000
4000
4000
4000
2000
2000
2000
1000
1000
1800
0800
0800
0400
0400
0400
0200
0200
0200
0100
0100
0080
0080
0080
0040
0040
ENDCHAR
STARTCHAR 005D
ENCODING 93
SWIDTH 396 0
DWIDTH 11 0
BBX 6 26 3 -4
BITMAP
FC
04
04
04
04
04
04
04
04
04
04
04
04
04
04
04
04
04
04
04
04
04
04
04
04
FC
ENDCHAR
STARTCHAR 005E
ENCODING 94
SWIDTH 396 0
DWIDTH 11 0
BBX 8 5 2 16
BITMAP
10
28
44
C2
81
ENDCHAR
STARTCHAR 005F
ENCODING 95
SWIDTH 684 0
DWIDTH 19 0
BBX 13 1 3 0
BITMAP
FFF8
ENDCHAR
STARTCHAR 0060
ENCODING 96
SWIDTH 180 0
DWIDTH 5 0
BBX 4 5 1 17
BITMAP
80
40
20
20
10
ENDCHAR
STARTCHAR 0061
ENCODING 97
SWIDTH 612 0
DWIDTH 17 0
BBX 13 15 2 0
BITMAP
1F88
3048
4028
C018
8018
8018
8008
8008
8008
8018
8018
C018
4028
2048
1F88
ENDCHAR
STARTCHAR 0062
ENCODING 98
SWIDTH 612 0
DWIDTH 17 0
BBX 13 20 3 1
BITMAP
8000
8000
8000
8000
8000
8F80
B040
C020
C010
8010
8010
8008
8008
8008
8010
8010
C010
C020
B040
9F80
ENDCHAR
STARTCHAR 0063
ENCODING 99
SWIDTH 576 0
DWIDTH 16 0
BBX 13 15 2 0
BITMAP
0F80
3060
6030
4010
8010
8000
8000
8000
8000
8000
8008
4010
4030
3060
1F80
ENDCHAR
STARTCHAR 0064
ENCODING 100
SWIDTH 612 0
DWIDTH 17 0
BBX 13 21 2 0
BITMAP
0008
0008
0008
0008
0008
0008
1F88
3048
4028
C018
8018
8018
8008
8008
8008
8018
8018
C018
4028
2048
1F88
ENDCHAR
STARTCHAR 0065
ENCODING 101
SWIDTH 576 0
DWIDTH 16 0
BBX 13 15 2 0
BITMAP
0F80
3060
6020
4010
8010
8010
8008
FFF8
8000
8000
8000
4010
4030
3060
1F80
ENDCHAR
STARTCHAR 0066
ENCODING 102
SWIDTH 324 0
DWIDTH 9 0
BBX 6 20 2 0
BITMAP
3C
20
20
20
20
FC
20
20
20
20
20
20
20
20
20
20
20
20
20
20
ENDCHAR
STARTCHAR 0067
ENCODING 103
SWIDTH 612 0
DWIDTH 17 0
BBX 13 21 2 -6
BITMAP
1F88
3048
4028
C018
8018
8008
8008
8008
8008
8018
8018
4018
6028
1DC8
0608
0008
0008
0010
0030
0DC0
0100
ENDCHAR
STARTCHAR 0068
ENCODING 104
SWIDTH 612 0
DWIDTH 17 0
BBX 12 21 3 0
BITMAP
8000
8000
8000
8000
8000
8000
9F80
B0C0
C020
8020
8010
8010
8010
8010
8010
8010
8010
8010
8010
8010
8010
ENDCHAR
STARTCHAR 0069
ENCODING 105
SWIDTH 216 0
DWIDTH 6 0
BBX 2 19 2 1
BITMAP
C0
00
00
00
00
80
80
80
80
80
80
80
80
80
80
80
80
80
80
ENDCHAR
STARTCHAR 006A
ENCODING 106
SWIDTH 216 0
DWIDTH 6 0
BBX 5 25 -1 -5
BITMAP
18
00
00
00
08
08
08
08
08
08
08
08
08
08
08
08
08
08
08
08
08
08
08
10
E0
ENDCHAR
STARTCHAR 006B
ENCODING 107
SWIDTH 468 0
DWIDTH 13 0
BBX 8 21 3 0
BITMAP
80
80
80
80
80
80
81
82
84
88
B0
C0
80
80
C0
A0
90
88
84
82
81
ENDCHAR
STARTCHAR 006C
ENCODING 108
SWIDTH 252 0
DWIDTH 7 0
BBX 4 21 3 0
BITMAP
80
80
80
80
80
80
80
80
80
80
80
80
80
80
80
80
80
80
80
80
F0
ENDCHAR
STARTCHAR 006D
ENCODING 109
SWIDTH 972 0
DWIDTH 27 0
BBX 22 15 3 0
BITMAP
1F03E0
A0C418
C04808
803004
803004
803004
802004
802004
802004
802004
802004
802004
802004
802004
802004
ENDCHAR
STARTCHAR 006E
ENCODING 110
SWIDTH 612 0
DWIDTH 17 0
BBX 12 15 3 0
BITMAP
9F80
B0C0
C020
8020
8010
8010
8010
8010
8010
8010
8010
8010
8010
8010
8010
ENDCHAR
STARTCHAR 006F
ENCODING 111
SWIDTH 576 0
DWIDTH 16 0
BBX 13 15 2 0
BITMAP
0F80
3060
6020
4010
8010
8008
8008
8008
8008
8008
8018
4010
4030
3060
1F80
ENDCHAR
STARTCHAR 0070
ENCODING 112
SWIDTH 612 0
DWIDTH 17 0
BBX 13 20 3 -6
BITMAP
0F80
B040
C020
C010
8010
8010
8008
8008
8008
8010
8010
C010
C020
B040
9F80
8000
8000
8000
8000
8000
ENDCHAR
STARTCHAR 0071
ENCODING 113
SWIDTH 612 0
DWIDTH 17 0
BBX 13 21 2 -6
BITMAP
1F88
3048
4028
C018
8018
8018
8008
8008
8008
8018
8018
C018
4028
2048
1F88
0008
0008
0008
0008
0008
0008
ENDCHAR
STARTCHAR 0072
ENCODING 114
SWIDTH 288 0
DWIDTH 8 0
BBX 6 15 2 0
BITMAP
8C
BC
C0
C0
80
80
80
80
80
80
80
80
80
80
80
ENDCHAR
STARTCHAR 0073
ENCODING 115
SWIDTH 468 0
DWIDTH 13 0
BBX 10 15 2 0
BITMAP
3E00
4180
80C0
8040
8000
8000
6000
1F00
0080
0040
8040
8040
8040
6080
3F00
ENDCHAR
STARTCHAR 0074
ENCODING 116
SWIDTH 360 0
DWIDTH 10 0
BBX 8 19 1 0
BITMAP
10
10
10
10
FF
10
10
10
10
10
10
10
10
10
10
10
10
10
0F
ENDCHAR
STARTCHAR 0075
ENCODING 117
SWIDTH 612 0
DWIDTH 17 0
BBX 12 15 3 0
BITMAP
8010
8010
8010
8010
8010
8010
8010
8010
8010
8010
8010
8030
C050
6090
3F10
ENDCHAR
STARTCHAR 0076
ENCODING 118
SWIDTH 540 0
DWIDTH 15 0
BBX 13 15 1 0
BITMAP
8008
4008
4010
4010
2020
2020
1020
1040
1040
0880
0880
0480
0500
0500
0200
ENDCHAR
STARTCHAR 0077
ENCODING 119
SWIDTH 792 0
DWIDTH 22 0
BBX 20 15 1 0
BITMAP
802010
406010
406010
405020
40D020
209020
208820
210840
110840
110440
130480
0A0480
0A0280
0E0300
0C0300
ENDCHAR
STARTCHAR 0078
ENCODING 120
SWIDTH 504 0
DWIDTH 14 0
BBX 12 15 1 0
BITMAP
8010
4020
2060
2040
1080
0900
0D00
0600
0600
0900
1880
10C0
2040
4020
4030
ENDCHAR
STARTCHAR 0079
ENCODING 121
SWIDTH 504 0
DWIDTH 14 0
BBX 13 20 1 -5
BITMAP
8008
C010
4010
4020
2020
2040
1040
1040
1080
0880
0900
0500
0600
0600
0600
0400
0400
0800
1800
F000
ENDCHAR
STARTCHAR 007A
ENCODING 122
SWIDTH 468 0
DWIDTH 13 0
BBX 12 15 1 0
BITMAP
7FF0
0020
0020
0040
0080
0100
0300
0200
0400
0800
1000
1000
2000
4000
FFF0
ENDCHAR
STARTCHAR 007B
ENCODING 123
SWIDTH 468 0
DWIDTH 13 0
BBX 8 28 4 -5
BITMAP
1F
20
20
20
20
20
20
20
20
20
20
20
20
60
C0
20
20
20
20
20
20
20
20
20
20
20
20
1F
ENDCHAR
STARTCHAR 007C
ENCODING 124
SWIDTH 252 0
DWIDTH 7 0
BBX 1 32 3 -6
BITMAP
80
80
80
80
80
80
80
80
80
80
80
80
80
80
80
80
80
80
80
80
80
80
80
80
80
80
80
80
80
80
80
80
ENDCHAR
STARTCHAR 007D
ENCODING 125
SWIDTH 468 0
DWIDTH 13 0
BBX 8 28 4 -5
BITMAP
F0
0C
04
04
04
04
04
04
04
04
04
04
04
04
07
04
04
04
04
04
04
04
04
04
04
04
04
F8
ENDCHAR
STARTCHAR 007E
ENCODING 126
SWIDTH 504 0
DWIDTH 14 0
BBX 9 2 3 10
BITMAP
7080
8F00
ENDCHAR
STARTCHAR 00A0
ENCODING 160
SWIDTH 216 0
DWIDTH 6 0
BBX 0 0 0 0
BITMAP
ENDCHAR
STARTCHAR 00A1
ENCODING 161
SWIDTH 180 0
DWIDTH 5 0
BBX 2 22 2 -7
BITMAP
C0
C0
00
00
00
80
80
80
80
80
80
80
80
80
80
C0
C0
C0
C0
C0
C0
C0
ENDCHAR
STARTCHAR 00A2
ENCODING 162
SWIDTH 576 0
DWIDTH 16 0
BBX 13 19 2 -2
BITMAP
0200
0200
0F80
3260
6230
4210
8210
8200
8200
8200
8200
8200
8208
4210
4230
3260
1FC0
0200
0200
ENDCHAR
STARTCHAR 00A3
ENCODING 163
SWIDTH 576 0
DWIDTH 16 0
BBX 13 20 1 0
BITMAP
0780
1860
2030
2010
4010
4008
6000
2000
2000
1000
1800
7FC0
0800
0400
0400
0800
0800
1000
2000
FFF8
ENDCHAR
STARTCHAR 00A4
ENCODING 164
SWIDTH 540 0
DWIDTH 15 0
BBX 11 10 2 6
BITMAP
5F40
2080
4040
4040
8020
8020
4040
4040
60C0
DF60
ENDCHAR
STARTCHAR 00A5
ENCODING 165
SWIDTH 576 0
DWIDTH 16 0
BBX 12 19 2 0
BITMAP
8010
8010
4020
4060
2040
20C0
1080
1980
0900
0F00
0600
7FE0
0400
0400
7FE0
0400
0400
0400
0400
ENDCHAR
STARTCHAR 00A6
ENCODING 166
SWIDTH 252 0
DWIDTH 7 0
BBX 1 32 3 -6
BITMAP
80
80
80
80
80
80
80
80
80
80
80
80
80
80
00
00
00
00
00
80
80
80
80
80
80
80
80
80
80
80
80
80
ENDCHAR
STARTCHAR 00A7
ENCODING 167
SWIDTH 540 0
DWIDTH 15 0
BBX 12 20 2 0
BITMAP
1F00
6080
4040
C060
C000
4000
3C00
43C0
8060
8020
8030
C020
7020
07C0
0040
0020
8020
C060
60C0
1F80
ENDCHAR
STARTCHAR 00A8
ENCODING 168
SWIDTH 252 0
DWIDTH 7 0
BBX 6 2 1 18
BITMAP
CC
08
ENDCHAR
STARTCHAR 00A9
ENCODING 169
SWIDTH 792 0
DWIDTH 22 0
BBX 20 20 1 0
BITMAP
01FC00
060700
180080
100040
20F820
430620
460210
440110
840010
840010
840010
840010
440110
460210
430620
21FC20
300040
180080
0E0300
03FC00
ENDCHAR
STARTCHAR 00AA
ENCODING 170
SWIDTH 108 0
DWIDTH 3 0
BBX 3 4 0 11
BITMAP
40
A0
A0
E0
ENDCHAR
STARTCHAR 00AB
ENCODING 171
SWIDTH 540 0
DWIDTH 15 0
BBX 13 12 2 3
BITMAP
0418
0830
1060
20C0
4180
8300
8300
4180
20C0
1060
0830
0418
ENDCHAR
STARTCHAR 00AC
ENCODING 172
SWIDTH 648 0
DWIDTH 18 0
BBX 14 7 2 8
BITMAP
FFFC
0004
0004
0004
0004
0004
0004
ENDCHAR
STARTCHAR 00AD
ENCODING 173
SWIDTH 576 0
DWIDTH 16 0
BBX 11 1 3 8
BITMAP
FFE0
ENDCHAR
STARTCHAR 00AE
ENCODING 174
SWIDTH 324 0
DWIDTH 9 0
BBX 7 7 1 12
BITMAP
7C
9A
AA
BA
8A
44
38
ENDCHAR
STARTCHAR 00AF
ENCODING 175
SWIDTH 324 0
DWIDTH 9 0
BBX 7 1 1 18
BITMAP
FE
ENDCHAR
STARTCHAR 00B0
ENCODING 176
SWIDTH 252 0
DWIDTH 7 0
BBX 4 5 2 19
BITMAP
60
90
90
90
E0
ENDCHAR
STARTCHAR 00B1
ENCODING 177
SWIDTH 576 0
DWIDTH 16 0
BBX 11 14 3 0
BITMAP
0400
0400
0400
0400
0400
FFE0
0400
0400
0400
0400
0000
0000
0000
FFE0
ENDCHAR
STARTCHAR 00B2
ENCODING 178
SWIDTH 288 0
DWIDTH 8 0
BBX 7 11 1 10
BITMAP
78
84
84
04
04
08
10
20
40
80
FE
ENDCHAR
STARTCHAR 00B3
ENCODING 179
SWIDTH 288 0
DWIDTH 8 0
BBX 7 11 1 10
BITMAP
78
84
04
04
0C
38
04
02
84
C4
38
ENDCHAR
STARTCHAR 00B4
ENCODING 180
SWIDTH 180 0
DWIDTH 5 0
BBX 3 5 1 17
BITMAP
20
20
40
80
80
ENDCHAR
STARTCHAR 00B5
ENCODING 181
SWIDTH 612 0
DWIDTH 17 0
BBX 15 21 2 -6
BITMAP
8020
8020
8020
8020
8020
8020
8020
8020
8020
8020
8020
8020
C060
E090
BF1E
8000
8000
8000
8000
8000
8000
ENDCHAR
STARTCHAR 00B6
ENCODING 182
SWIDTH 504 0
DWIDTH 14 0
BBX 10 19 1 0
BITMAP
3FC0
7F40
FF40
FF40
FF40
FF40
FF40
7F40
1F40
0140
0140
0140
0140
0140
0140
0140
0140
0140
0140
ENDCHAR
STARTCHAR 00B7
ENCODING 183
SWIDTH 252 0
DWIDTH 7 0
BBX 2 2 3 9
BITMAP
C0
80
ENDCHAR
STARTCHAR 00B8
ENCODING 184
SWIDTH 216 0
DWIDTH 6 0
BBX 5 7 1 -7
BITMAP
40
80
F0
08
08
10
E0
ENDCHAR
STARTCHAR 00B9
ENCODING 185
SWIDTH 216 0
DWIDTH 6 0
BBX 4 10 1 11
BITMAP
60
A0
20
20
20
20
20
20
20
F0
ENDCHAR
STARTCHAR 00BA
ENCODING 186
SWIDTH 144 0
DWIDTH 4 0
BBX 4 4 0 11
BITMAP
60
90
90
60
ENDCHAR
STARTCHAR 00BB
ENCODING 187
SWIDTH 540 0
DWIDTH 15 0
BBX 13 12 1 3
BITMAP
C100
6080
3040
1820
0C10
0608
0608
0C10
1820
3040
6080
C100
ENDCHAR
STARTCHAR 00BC
ENCODING 188
SWIDTH 756 0
DWIDTH 21 0
BBX 20 19 1 0
BITMAP
600300
A00200
200400
200400
200800
201800
201000
202000
F82000
004040
00C0C0
008140
010140
010240
020440
060440
0407F0
080040
080040
ENDCHAR
STARTCHAR 00BD
ENCODING 189
SWIDTH 792 0
DWIDTH 22 0
BBX 20 19 1 0
BITMAP
600100
A00200
200200
200400
200800
200800
201000
201000
F82000
0041E0
004220
008210
008010
010020
020040
0200C0
040180
040200
0803F0
ENDCHAR
STARTCHAR 00BE
ENCODING 190
SWIDTH 828 0
DWIDTH 23 0
BBX 21 19 1 0
BITMAP
7C0080
840100
040100
040200
180400
040400
020800
840800
641000
382030
002030
004050
004090
008090
010110
010210
0203F8
020010
040010
ENDCHAR
STARTCHAR 00BF
ENCODING 191
SWIDTH 576 0
DWIDTH 16 0
BBX 12 20 2 -7
BITMAP
0600
0200
0000
0000
0000
0200
0400
0400
0800
1000
2000
4000
8000
8000
8010
8010
8010
4020
20C0
1F00
ENDCHAR
STARTCHAR 00C0
ENCODING 192
SWIDTH 684 0
DWIDTH 19 0
BBX 15 26 2 0
BITMAP
0800
0400
0400
0200
0100
0000
0000
0100
0280
0280
0440
0440
0440
0820
0820
1010
1010
1010
2008
3FF8
2008
4004
4004
8002
8002
8002
ENDCHAR
STARTCHAR 00C1
ENCODING 193
SWIDTH 684 0
DWIDTH 19 0
BBX 15 26 2 0
BITMAP
0020
0040
0080
0080
0100
0000
0000
0100
0280
0280
0440
0440
0440
0820
0820
1010
1010
1010
2008
3FF8
2008
4004
4004
8002
8002
8002
ENDCHAR
STARTCHAR 00C2
ENCODING 194
SWIDTH 684 0
DWIDTH 19 0
BBX 15 25 2 0
BITMAP
0380
06C0
0C40
0820
0000
0000
0100
0280
0280
0440
0440
0440
0820
0820
1010
1010
1010
2008
3FF8
2008
4004
4004
8002
8002
8002
ENDCHAR
STARTCHAR 00C3
ENCODING 195
SWIDTH 684 0
DWIDTH 19 0
BBX 15 25 2 0
BITMAP
0620
0920
08C0
0000
0000
0000
0100
0280
0280
0440
0440
0440
0820
0820
1010
1010
1010
2008
3FF8
2008
4004
4004
8002
8002
8002
ENDCHAR
STARTCHAR 00C4
ENCODING 196
SWIDTH 684 0
DWIDTH 19 0
BBX 15 24 2 0
BITMAP
04C0
0440
0000
0000
0000
0100
0280
0280
0440
0440
0440
0820
0820
1010
1010
1010
2008
3FF8
2008
4004
4004
8002
8002
8002
ENDCHAR
STARTCHAR 00C5
ENCODING 197
SWIDTH 684 0
DWIDTH 19 0
BBX 15 26 2 0
BITMAP
0380
0440
0480
0300
0000
0000
0000
0100
0280
0280
0440
0440
0440
0820
0820
1010
1010
1010
2008
3FF8
2008
4004
4004
8002
8002
8002
ENDCHAR
STARTCHAR 00C6
ENCODING 198
SWIDTH 936 0
DWIDTH 26 0
BBX 23 19 1 0
BITMAP
001FFE
002800
006800
004800
008800
008800
010800
010800
020800
060FFC
040800
080800
0FF800
100800
100800
200800
400800
400800
800FFE
ENDCHAR
STARTCHAR 00C7
ENCODING 199
SWIDTH 720 0
DWIDTH 20 0
BBX 17 27 2 -7
BITMAP
03E000
0C1800
300600
200200
400100
400100
800080
800000
800000
800000
800000
800000
800000
800000
400100
400100
600300
300600
180C00
07F000
008000
008000
00F000
001000
001000
001000
00E000
ENDCHAR
STARTCHAR 00C8
ENCODING 200
SWIDTH 540 0
DWIDTH 15 0
BBX 11 26 3 0
BITMAP
2000
3000
1000
0800
0800
0000
0000
FFE0
8000
8000
8000
8000
8000
8000
8000
8000
FF80
8000
8000
8000
8000
8000
8000
8000
8000
FFE0
ENDCHAR
STARTCHAR 00C9
ENCODING 201
SWIDTH 540 0
DWIDTH 15 0
BBX 11 26 3 0
BITMAP
0180
0100
0200
0400
0400
0000
0000
FFE0
8000
8000
8000
8000
8000
8000
8000
8000
FF80
8000
8000
8000
8000
8000
8000
8000
8000
FFE0
ENDCHAR
STARTCHAR 00CA
ENCODING 202
SWIDTH 540 0
DWIDTH 15 0
BBX 11 25 3 0
BITMAP
0C00
1200
2100
6080
0000
0000
FFE0
8000
8000
8000
8000
8000
8000
8000
8000
FF80
8000
8000
8000
8000
8000
8000
8000
8000
FFE0
ENDCHAR
STARTCHAR 00CB
ENCODING 203
SWIDTH 540 0
DWIDTH 15 0
BBX 11 24 3 0
BITMAP
3300
0000
0000
0000
0000
FFE0
8000
8000
8000
8000
8000
8000
8000
8000
FF80
8000
8000
8000
8000
8000
8000
8000
8000
FFE0
ENDCHAR
STARTCHAR 00CC
ENCODING 204
SWIDTH 216 0
DWIDTH 6 0
BBX 4 26 0 0
BITMAP
80
C0
40
20
20
00
00
10
10
10
10
10
10
10
10
10
10
10
10
10
10
10
10
10
10
10
ENDCHAR
STARTCHAR 00CD
ENCODING 205
SWIDTH 216 0
DWIDTH 6 0
BBX 3 26 3 0
BITMAP
20
20
40
80
80
00
00
80
80
80
80
80
80
80
80
80
80
80
80
80
80
80
80
80
80
80
ENDCHAR
STARTCHAR 00CE
ENCODING 206
SWIDTH 216 0
DWIDTH 6 0
BBX 8 25 -1 0
BITMAP
18
24
42
81
00
00
08
08
08
08
08
08
08
08
08
08
08
08
08
08
08
08
08
08
08
ENDCHAR
STARTCHAR 00CF
ENCODING 207
SWIDTH 216 0
DWIDTH 6 0
BBX 6 24 0 0
BITMAP
CC
00
00
00
00
10
10
10
10
10
10
10
10
10
10
10
10
10
10
10
10
10
10
10
ENDCHAR
STARTCHAR 00D0
ENCODING 208
SWIDTH 720 0
DWIDTH 20 0
BBX 17 19 2 0
BITMAP
7FF000
400800
400400
400200
400100
400100
400100
400100
400080
FE0080
400080
400100
400100
400100
400300
400200
400400
401800
7FE000
ENDCHAR
STARTCHAR 00D1
ENCODING 209
SWIDTH 720 0
DWIDTH 20 0
BBX 14 25 3 0
BITMAP
0420
0B40
00C0
0000
0000
0000
8004
C004
A004
A004
9004
8804
8C04
8404
8204
8104
8184
8084
8044
8024
8024
8014
800C
800C
8004
ENDCHAR
STARTCHAR 00D2
ENCODING 210
SWIDTH 720 0
DWIDTH 20 0
BBX 17 26 2 0
BITMAP
040000
020000
020000
010000
008000
000000
03E000
0C1800
300400
200200
400100
C00100
800080
800080
800080
800080
800080
800080
800080
800080
800100
400100
600200
300600
180C00
07F000
ENDCHAR
STARTCHAR 00D3
ENCODING 211
SWIDTH 720 0
DWIDTH 20 0
BBX 17 26 2 0
BITMAP
003000
002000
004000
004000
008000
000000
03E000
0C1800
300400
200200
400100
C00100
800080
800080
800080
800080
800080
800080
800080
800080
800100
400100
600200
300600
180C00
07F000
ENDCHAR
STARTCHAR 00D4
ENCODING 212
SWIDTH 720 0
DWIDTH 20 0
BBX 17 25 2 0
BITMAP
01C000
034000
062000
0C1000
000000
03E000
0C1800
300400
200200
400100
C00100
800080
800080
800080
800080
800080
800080
800080
800080
800100
400100
600200
300600
180C00
07F000
ENDCHAR
STARTCHAR 00D5
ENCODING 213
SWIDTH 720 0
DWIDTH 20 0
BBX 17 25 2 0
BITMAP
031000
049000
046000
000000
000000
03E000
0C1800
300400
200200
400100
C00100
800080
800080
800080
800080
800080
800080
800080
800080
800100
400100
600200
300600
180C00
07F000
ENDCHAR
STARTCHAR 00D6
ENCODING 214
SWIDTH 720 0
DWIDTH 20 0
BBX 17 24 2 0
BITMAP
066000
022000
000000
000000
03E000
0C1800
300400
200200
400100
C00100
800080
800080
800080
800080
800080
800080
800080
800080
800100
400100
600200
300600
180C00
07F000
ENDCHAR
STARTCHAR 00D7
ENCODING 215
SWIDTH 504 0
DWIDTH 14 0
BBX 8 8 3 5
BITMAP
01
43
26
1C
18
34
62
C1
ENDCHAR
STARTCHAR 00D8
ENCODING 216
SWIDTH 720 0
DWIDTH 20 0
BBX 17 22 2 -1
BITMAP
000100
03E200
0C1E00
300400
600A00
400900
C01100
802180
802080
804080
808080
808080
810080
820080
820080
840100
4C0100
680200
300600
180C00
27F000
400000
ENDCHAR
STARTCHAR 00D9
ENCODING 217
SWIDTH 648 0
DWIDTH 18 0
BBX 15 26 2 0
BITMAP
0800
0400
0200
0200
0100
0000
0000
8002
8002
8002
8002
8002
8002
8002
8002
8002
8002
8002
8002
8002
8002
4004
4004
2008
3018
0FE0
ENDCHAR
STARTCHAR 00DA
ENCODING 218
SWIDTH 648 0
DWIDTH 18 0
BBX 15 26 2 0
BITMAP
0020
0040
00C0
0080
0100
0000
0000
8002
8002
8002
8002
8002
8002
8002
8002
8002
8002
8002
8002
8002
8002
4004
4004
2008
3018
0FE0
ENDCHAR
STARTCHAR 00DB
ENCODING 219
SWIDTH 648 0
DWIDTH 18 0
BBX 15 25 2 0
BITMAP
0380
06C0
0440
0820
0000
0000
8002
8002
8002
8002
8002
8002
8002
8002
8002
8002
8002
8002
8002
8002
4004
4004
2008
3018
0FE0
ENDCHAR
STARTCHAR 00DC
ENCODING 220
SWIDTH 648 0
DWIDTH 18 0
BBX 15 24 2 0
BITMAP
06C0
0440
0000
0000
0000
8002
8002
8002
8002
8002
8002
8002
8002
8002
8002
8002
8002
8002
8002
4004
4004
2008
3018
0FE0
ENDCHAR
STARTCHAR 00DD
ENCODING 221
SWIDTH 576 0
DWIDTH 16 0
BBX 12 26 2 0
BITMAP
0080
0080
0100
0200
0200
0000
0000
8010
8010
4020
4060
2040
20C0
1080
1980
0900
0F00
0600
0600
0400
0400
0400
0400
0400
0400
0400
ENDCHAR
STARTCHAR 00DE
ENCODING 222
SWIDTH 576 0
DWIDTH 16 0
BBX 12 19 3 0
BITMAP
8000
8000
8000
FF00
80C0
8020
8020
8010
8010
8010
8010
8010
8020
8060
FF80
8000
8000
8000
8000
ENDCHAR
STARTCHAR 00DF
ENCODING 223
SWIDTH 540 0
DWIDTH 15 0
BBX 10 20 3 0
BITMAP
3E00
6180
8080
8040
8040
8040
8040
8080
8180
BE00
8300
8080
8040
8040
8040
8040
8040
8040
8080
9F00
ENDCHAR
STARTCHAR 00E0
ENCODING 224
SWIDTH 612 0
DWIDTH 17 0
BBX 13 21 2 0
BITMAP
1000
0800
0400
0400
0200
0000
1F88
3048
4028
C018
8018
8018
8008
8008
8008
8018
8018
C018
4028
2048
1F88
ENDCHAR
STARTCHAR 00E1
ENCODING 225
SWIDTH 612 0
DWIDTH 17 0
BBX 13 21 2 0
BITMAP
0040
0080
0100
0100
0200
0000
1F88
3048
4028
C018
8018
8018
8008
8008
8008
8018
8018
C018
4028
2048
1F88
ENDCHAR
STARTCHAR 00E2
ENCODING 226
SWIDTH 612 0
DWIDTH 17 0
BBX 13 20 2 0
BITMAP
0700
0D80
18C0
0000
0000
1F88
3048
4028
C018
8018
8018
8008
8008
8008
8018
8018
C018
4028
2048
1F88
ENDCHAR
STARTCHAR 00E3
ENCODING 227
SWIDTH 612 0
DWIDTH 17 0
BBX 13 20 2 0
BITMAP
0C40
12C0
1000
0000
0000
1F88
3048
4028
C018
8018
8018
8008
8008
8008
8018
8018
C018
4028
2048
1F88
ENDCHAR
STARTCHAR 00E4
ENCODING 228
SWIDTH 612 0
DWIDTH 17 0
BBX 13 20 2 0
BITMAP
0800
1980
0000
0000
0000
1F88
3048
4028
C018
8018
8018
8008
8008
8008
8018
8018
C018
4028
2048
1F88
ENDCHAR
STARTCHAR 00E5
ENCODING 229
SWIDTH 612 0
DWIDTH 17 0
BBX 13 22 2 0
BITMAP
0200
0500
0880
0900
0600
0000
0000
1F88
3048
4028
C018
8018
8018
8008
8008
8008
8018
8018
C018
4028
2048
1F88
ENDCHAR
STARTCHAR 00E6
ENCODING 230
SWIDTH 936 0
DWIDTH 26 0
BBX 23 15 2 0
BITMAP
1F03F0
60C418
404804
803006
003002
003002
002002
3FFFFE
402000
802000
803000
803002
804804
418408
3F03F0
ENDCHAR
STARTCHAR 00E7
ENCODING 231
SWIDTH 576 0
DWIDTH 16 0
BBX 13 22 2 -7
BITMAP
0F80
3060
6030
4010
8010
8000
8000
8000
8000
8000
8018
4010
4030
3060
1F80
0200
0200
0780
0040
0040
0040
0380
ENDCHAR
STARTCHAR 00E8
ENCODING 232
SWIDTH 576 0
DWIDTH 16 0
BBX 13 21 2 0
BITMAP
1000
0800
0C00
0400
0200
0000
0F80
3060
6020
4010
8010
8010
8008
FFF8
8000
8000
8000
4010
4030
3060
1F80
ENDCHAR
STARTCHAR 00E9
ENCODING 233
SWIDTH 576 0
DWIDTH 16 0
BBX 13 21 2 0
BITMAP
00C0
0080
0100
0100
0200
0000
0F80
3060
6020
4010
8010
8010
8008
FFF8
8000
8000
8000
4010
4030
3060
1F80
ENDCHAR
STARTCHAR 00EA
ENCODING 234
SWIDTH 576 0
DWIDTH 16 0
BBX 13 20 2 0
BITMAP
0700
0980
18C0
0000
0000
0F80
3060
6020
4010
8010
8010
8008
FFF8
8000
8000
8000
4010
4030
3060
1F80
ENDCHAR
STARTCHAR 00EB
ENCODING 235
SWIDTH 576 0
DWIDTH 16 0
BBX 13 19 2 1
BITMAP
1980
0000
0000
0000
0F80
3060
6020
4010
8010
8010
8008
FFF8
8000
8000
8000
4010
4030
3060
1F80
ENDCHAR
STARTCHAR 00EC
ENCODING 236
SWIDTH 216 0
DWIDTH 6 0
BBX 3 21 0 0
BITMAP
80
C0
40
20
20
00
00
20
20
20
20
20
20
20
20
20
20
20
20
20
20
ENDCHAR
STARTCHAR 00ED
ENCODING 237
SWIDTH 216 0
DWIDTH 6 0
BBX 3 21 3 0
BITMAP
20
60
40
80
80
00
00
80
80
80
80
80
80
80
80
80
80
80
80
80
80
ENDCHAR
STARTCHAR 00EE
ENCODING 238
SWIDTH 216 0
DWIDTH 6 0
BBX 6 20 0 0
BITMAP
30
48
84
00
00
00
20
20
20
20
20
20
20
20
20
20
20
20
20
20
ENDCHAR
STARTCHAR 00EF
ENCODING 239
SWIDTH 216 0
DWIDTH 6 0
BBX 6 19 0 1
BITMAP
CC
00
00
00
00
20
20
20
20
20
20
20
20
20
20
20
20
20
20
ENDCHAR
STARTCHAR 00F0
ENCODING 240
SWIDTH 612 0
DWIDTH 17 0
BBX 13 21 2 0
BITMAP
0710
00E0
01E0
0220
0010
0010
1F90
3048
4028
C018
8018
8008
8008
8008
8008
8008
8010
C010
4020
2040
1F80
ENDCHAR
STARTCHAR 00F1
ENCODING 241
SWIDTH 612 0
DWIDTH 17 0
BBX 12 20 3 0
BITMAP
1880
2480
2300
0000
0000
9F80
B0C0
C020
8020
8010
8010
8010
8010
8010
8010
8010
8010
8010
8010
8010
ENDCHAR
STARTCHAR 00F2
ENCODING 242
SWIDTH 576 0
DWIDTH 16 0
BBX 13 21 2 0
BITMAP
1000
0800
0C00
0400
0200
0000
0F80
3060
6020
4010
8010
8008
8008
8008
8008
8008
8018
4010
4030
3060
1F80
ENDCHAR
STARTCHAR 00F3
ENCODING 243
SWIDTH 576 0
DWIDTH 16 0
BBX 13 21 2 0
BITMAP
00C0
0080
0100
0100
0200
0000
0F80
3060
6020
4010
8010
8008
8008
8008
8008
8008
8018
4010
4030
3060
1F80
ENDCHAR
STARTCHAR 00F4
ENCODING 244
SWIDTH 576 0
DWIDTH 16 0
BBX 13 20 2 0
BITMAP
0700
0980
18C0
0000
0000
0F80
3060
6020
4010
8010
8008
8008
8008
8008
8008
8018
4010
4030
3060
1F80
ENDCHAR
STARTCHAR 00F5
ENCODING 245
SWIDTH 576 0
DWIDTH 16 0
BBX 13 20 2 0
BITMAP
0C40
12C0
1100
0000
0000
0F80
3060
6020
4010
8010
8008
8008
8008
8008
8008
8018
4010
4030
3060
1F80
ENDCHAR
STARTCHAR 00F6
ENCODING 246
SWIDTH 576 0
DWIDTH 16 0
BBX 13 19 2 1
BITMAP
1980
0000
0000
0000
0F80
3060
6020
4010
8010
8008
8008
8008
8008
8008
8018
4010
4030
3060
1F80
ENDCHAR
STARTCHAR 00F7
ENCODING 247
SWIDTH 576 0
DWIDTH 16 0
BBX 10 11 2 3
BITMAP
0C00
0C00
0000
0000
0000
FFC0
0000
0000
0000
0C00
0400
ENDCHAR
STARTCHAR 00F8
ENCODING 248
SWIDTH 576 0
DWIDTH 16 0
BBX 13 17 2 -1
BITMAP
0020
0FA0
3060
6070
4090
8198
8108
8208
8208
8408
8408
8818
4810
5030
3060
2F80
6000
ENDCHAR
STARTCHAR 00F9
ENCODING 249
SWIDTH 612 0
DWIDTH 17 0
BBX 12 21 3 0
BITMAP
2000
3000
1000
0800
0000
0000
8010
8010
8010
8010
8010
8010
8010
8010
8010
8010
8010
8030
C050
6090
3F10
ENDCHAR
STARTCHAR 00FA
ENCODING 250
SWIDTH 612 0
DWIDTH 17 0
BBX 12 21 3 0
BITMAP
0100
0100
0200
0400
0400
0000
8010
8010
8010
8010
8010
8010
8010
8010
8010
8010
8010
8030
C050
6090
3F10
ENDCHAR
STARTCHAR 00FB
ENCODING 251
SWIDTH 612 0
DWIDTH 17 0
BBX 12 20 3 0
BITMAP
0C00
1200
2100
0080
0000
8010
8010
8010
8010
8010
8010
8010
8010
8010
8010
8010
8030
C050
6090
3F10
ENDCHAR
STARTCHAR 00FC
ENCODING 252
SWIDTH 612 0
DWIDTH 17 0
BBX 12 19 3 1
BITMAP
3300
0000
0000
0000
8010
8010
8010
8010
8010
8010
8010
8010
8010
8010
8010
8030
C050
6090
3F10
ENDCHAR
STARTCHAR 00FD
ENCODING 253
SWIDTH 504 0
DWIDTH 14 0
BBX 13 26 1 -5
BITMAP
00C0
0080
0100
0200
0200
0000
8008
C010
4010
4020
2020
2040
1040
1040
1080
0880
0900
0500
0600
0600
0600
0400
0400
0800
1800
F000
ENDCHAR
STARTCHAR 00FE
ENCODING 254
SWIDTH 612 0
DWIDTH 17 0
BBX 13 26 3 -5
BITMAP
8000
8000
8000
8000
8000
9F80
B040
C020
C010
8010
8010
8008
8008
8008
8010
8010
C010
C020
B040
9F80
8000
8000
8000
8000
8000
8000
ENDCHAR
STARTCHAR 00FF
ENCODING 255
SWIDTH 504 0
DWIDTH 14 0
BBX 13 24 1 -4
BITMAP
1980
0000
0000
0000
8008
C010
4010
4020
2020
2040
1040
1040
1080
0880
0900
0500
0600
0600
0600
0400
0400
0800
1800
F000
ENDCHAR
STARTCHAR 0100
ENCODING 256
SWIDTH 684 0
DWIDTH 19 0
BBX 15 23 2 0
BITMAP
0FE0
0000
0000
0000
0100
0280
0280
0440
0440
0440
0820
0820
1010
1010
1010
2008
3FF8
2008
4004
4004
8002
8002
8002
ENDCHAR
STARTCHAR 0101
ENCODING 257
SWIDTH 612 0
DWIDTH 17 0
BBX 13 18 2 0
BITMAP
1FC0
0000
0000
1F88
3048
4028
C018
8018
8018
8008
8008
8008
8018
8018
C018
4028
2048
1F88
ENDCHAR
STARTCHAR 0102
ENCODING 258
SWIDTH 684 0
DWIDTH 19 0
BBX 15 24 2 0
BITMAP
0820
07C0
0000
0000
0000
0100
0280
0280
0440
0440
0440
0820
0820
1010
1010
1010
2008
3FF8
2008
4004
4004
8002
8002
8002
ENDCHAR
STARTCHAR 0103
ENCODING 259
SWIDTH 612 0
DWIDTH 17 0
BBX 13 19 2 0
BITMAP
1040
0F80
0000
0000
1F88
3048
4028
C018
8018
8018
8008
8008
8008
8018
8018
C018
4028
2048
1F88
ENDCHAR
STARTCHAR 0104
ENCODING 260
SWIDTH 684 0
DWIDTH 19 0
BBX 17 23 2 -4
BITMAP
010000
028000
028000
044000
044000
044000
082000
082000
103000
101000
101000
200800
3FF800
200800
400400
400400
800200
800200
800200
000200
000400
000400
000380
ENDCHAR
STARTCHAR 0105
ENCODING 261
SWIDTH 612 0
DWIDTH 17 0
BBX 14 19 2 -4
BITMAP
1F88
3048
4028
C018
8018
8018
8008
8008
8008
8018
8018
C018
4028
2048
1F88
0010
0020
0020
001C
ENDCHAR
STARTCHAR 0106
ENCODING 262
SWIDTH 720 0
DWIDTH 20 0
BBX 17 26 2 0
BITMAP
002000
002000
004000
008000
008000
000000
03E000
0C1800
300600
200200
400100
400100
800080
800000
800000
800000
800000
800000
800000
800000
400100
400100
600200
300600
180C00
07F000
ENDCHAR
STARTCHAR 0107
ENCODING 263
SWIDTH 576 0
DWIDTH 16 0
BBX 13 21 2 0
BITMAP
0040
0080
0100
0100
0200
0000
0F80
3060
6030
4010
8010
8000
8000
8000
8000
8000
8008
4010
4030
3060
1F80
ENDCHAR
STARTCHAR 010A
ENCODING 266
SWIDTH 720 0
DWIDTH 20 0
BBX 17 24 2 0
BITMAP
018000
000000
000000
000000
03E000
0C1800
300600
200200
400100
400100
800080
800000
800000
800000
800000
800000
800000
800000
400100
400100
600200
300600
180C00
07F000
ENDCHAR
STARTCHAR 010B
ENCODING 267
SWIDTH 576 0
DWIDTH 16 0
BBX 13 20 2 0
BITMAP
0200
0600
0000
0000
0000
0F80
3060
6030
4010
8010
8000
8000
8000
8000
8000
8008
4010
4030
3060
1F80
ENDCHAR
STARTCHAR 010C
ENCODING 268
SWIDTH 720 0
DWIDTH 20 0
BBX 17 25 2 0
BITMAP
043000
066000
03C000
018000
000000
03E000
0C1800
300600
200200
400100
400100
800080
800000
800000
800000
800000
800000
800000
800000
400100
400100
600200
300600
180C00
07F000
ENDCHAR
STARTCHAR 010D
ENCODING 269
SWIDTH 576 0
DWIDTH 16 0
BBX 13 20 2 0
BITMAP
1040
0880
0500
0200
0000
0F80
3060
6030
4010
8010
8000
8000
8000
8000
8000
8008
4010
4030
3060
1F80
ENDCHAR
STARTCHAR 010E
ENCODING 270
SWIDTH 684 0
DWIDTH 19 0
BBX 15 25 3 0
BITMAP
10C0
0880
0500
0200
0000
0000
FFC0
8030
8018
8008
8004
8004
8002
8002
8002
8002
8002
8002
8006
8004
8004
8008
8010
8060
FF80
ENDCHAR
STARTCHAR 010F
ENCODING 271
SWIDTH 684 0
DWIDTH 19 0
BBX 17 21 2 0
BITMAP
000B00
000B80
000880
000880
000900
000A00
1F8800
304800
402800
C01800
801800
801800
800800
800800
800800
801800
801800
C01800
402800
204800
1F8800
ENDCHAR
STARTCHAR 0110
ENCODING 272
SWIDTH 720 0
DWIDTH 20 0
BBX 17 19 2 0
BITMAP
7FF000
400800
400400
400200
400100
400100
400100
400100
400080
FE0080
400080
400100
400100
400100
400300
400200
400400
401800
7FE000
ENDCHAR
STARTCHAR 0111
ENCODING 273
SWIDTH 612 0
DWIDTH 17 0
BBX 15 21 2 0
BITMAP
0008
0008
0008
03FE
0008
0008
1F88
3048
4028
C018
8018
8018
8008
8008
8008
8018
8018
C018
4028
2048
1F88
ENDCHAR
STARTCHAR 0112
ENCODING 274
SWIDTH 540 0
DWIDTH 15 0
BBX 11 23 3 0
BITMAP
7F80
0000
0000
0000
FFE0
8000
8000
8000
8000
8000
8000
8000
8000
FF80
8000
8000
8000
8000
8000
8000
8000
8000
FFE0
ENDCHAR
STARTCHAR 0113
ENCODING 275
SWIDTH 576 0
DWIDTH 16 0
BBX 13 18 2 0
BITMAP
1FC0
0000
0000
0F80
3060
6020
4010
8010
8010
8008
FFF8
8000
8000
8000
4010
4030
3060
1F80
ENDCHAR
STARTCHAR 0116
ENCODING 278
SWIDTH 540 0
DWIDTH 15 0
BBX 11 24 3 0
BITMAP
0C00
0000
0000
0000
0000
FFE0
8000
8000
8000
8000
8000
8000
8000
8000
FF80
8000
8000
8000
8000
8000
8000
8000
8000
FFE0
ENDCHAR
STARTCHAR 0117
ENCODING 279
SWIDTH 576 0
DWIDTH 16 0
BBX 13 19 2 1
BITMAP
0600
0000
0000
0000
0F80
3060
6020
4010
8010
8010
8008
FFF8
8000
8000
8000
4010
4030
3060
1F80
ENDCHAR
STARTCHAR 0118
ENCODING 280
SWIDTH 540 0
DWIDTH 15 0
BBX 12 23 3 -4
BITMAP
FFE0
8000
8000
8000
8000
8000
8000
8000
8000
FF80
8000
8000
8000
8000
8000
8000
8000
8000
FFE0
0040
0080
0080
0070
ENDCHAR
STARTCHAR 0119
ENCODING 281
SWIDTH 576 0
DWIDTH 16 0
BBX 13 19 2 -4
BITMAP
0F80
3060
6020
4010
8010
8010
8008
FFF8
8000
8000
8000
4010
4030
3060
1F80
0200
0400
0400
0700
ENDCHAR
STARTCHAR 011A
ENCODING 282
SWIDTH 540 0
DWIDTH 15 0
BBX 11 25 3 0
BITMAP
2180
1300
1E00
0C00
0000
0000
FFE0
8000
8000
8000
8000
8000
8000
8000
8000
FF80
8000
8000
8000
8000
8000
8000
8000
8000
FFE0
ENDCHAR
STARTCHAR 011B
ENCODING 283
SWIDTH 576 0
DWIDTH 16 0
BBX 13 20 2 0
BITMAP
10C0
0880
0500
0200
0000
0F80
3060
6020
4010
8010
8010
8008
FFF8
8000
8000
8000
4010
4030
3060
1F80
ENDCHAR
STARTCHAR 011E
ENCODING 286
SWIDTH 684 0
DWIDTH 19 0
BBX 16 24 2 0
BITMAP
0C10
03E0
0000
0000
03E0
1C18
3004
2002
4002
4001
8000
8000
8000
8000
80FF
8001
8001
8001
8001
4003
6003
2005
1819
07F1
ENDCHAR
STARTCHAR 011F
ENCODING 287
SWIDTH 612 0
DWIDTH 17 0
BBX 13 25 2 -6
BITMAP
1040
0F80
0000
0000
1F88
3048
4028
C018
8018
8008
8008
8008
8008
8018
8018
4018
6028
1DC8
0608
0008
0008
0010
0030
0DC0
0100
ENDCHAR
STARTCHAR 0120
ENCODING 288
SWIDTH 684 0
DWIDTH 19 0
BBX 16 24 2 0
BITMAP
0180
0080
0000
0000
03E0
1C18
3004
2002
4002
4001
8000
8000
8000
8000
80FF
8001
8001
8001
8001
4003
6003
2005
1819
07F1
ENDCHAR
STARTCHAR 0121
ENCODING 289
SWIDTH 612 0
DWIDTH 17 0
BBX 13 26 2 -6
BITMAP
0200
0600
0000
0000
0000
1F88
3048
4028
C018
8018
8008
8008
8008
8008
8018
8018
4018
6028
1DC8
0608
0008
0008
0010
0030
0DC0
0100
ENDCHAR
STARTCHAR 0126
ENCODING 294
SWIDTH 684 0
DWIDTH 19 0
BBX 17 19 1 0
BITMAP
200200
200200
200200
200200
FFFF80
200200
200200
200200
200200
3FFE00
200200
200200
200200
200200
200200
200200
200200
200200
200200
ENDCHAR
STARTCHAR 0127
ENCODING 295
SWIDTH 576 0
DWIDTH 16 0
BBX 15 20 0 1
BITMAP
2000
2000
FF80
2000
2000
21F8
260C
2804
2802
1002
1002
1002
1002
1002
1002
1002
1002
1002
1002
1002
ENDCHAR
STARTCHAR 0128
ENCODING 296
SWIDTH 216 0
DWIDTH 6 0
BBX 7 25 0 0
BITMAP
42
B4
0C
00
00
00
10
10
10
10
10
10
10
10
10
10
10
10
10
10
10
10
10
10
10
ENDCHAR
STARTCHAR 0129
ENCODING 297
SWIDTH 216 0
DWIDTH 6 0
BBX 7 20 -1 0
BITMAP
70
4A
84
00
00
00
10
10
10
10
10
10
10
10
10
10
10
10
10
10
ENDCHAR
STARTCHAR 012A
ENCODING 298
SWIDTH 216 0
DWIDTH 6 0
BBX 8 23 -1 0
BITMAP
FF
00
00
00
08
08
08
08
08
08
08
08
08
08
08
08
08
08
08
08
08
08
08
ENDCHAR
STARTCHAR 012B
ENCODING 299
SWIDTH 216 0
DWIDTH 6 0
BBX 6 18 0 0
BITMAP
FC
00
00
00
20
20
20
20
20
20
20
20
20
20
20
20
20
20
ENDCHAR
STARTCHAR 012E
ENCODING 302
SWIDTH 216 0
DWIDTH 6 0
BBX 4 23 1 -4
BITMAP
20
20
20
20
20
20
20
20
20
20
20
20
20
20
20
20
20
20
20
40
80
80
70
ENDCHAR
STARTCHAR 012F
ENCODING 303
SWIDTH 216 0
DWIDTH 6 0
BBX 4 23 1 -3
BITMAP
60
00
00
00
00
40
40
40
40
40
40
40
40
40
40
40
40
40
40
40
80
80
70
ENDCHAR
STARTCHAR 0130
ENCODING 304
SWIDTH 216 0
DWIDTH 6 0
BBX 2 24 2 0
BITMAP
C0
00
00
00
00
40
40
40
40
40
40
40
40
40
40
40
40
40
40
40
40
40
40
40
ENDCHAR
STARTCHAR 0131
ENCODING 305
SWIDTH 216 0
DWIDTH 6 0
BBX 1 14 3 1
BITMAP
80
80
80
80
80
80
80
80
80
80
80
80
80
80
ENDCHAR
STARTCHAR 0139
ENCODING 313
SWIDTH 504 0
DWIDTH 14 0
BBX 10 26 3 0
BITMAP
2000
2000
4000
8000
8000
0000
0000
8000
8000
8000
8000
8000
8000
8000
8000
8000
8000
8000
8000
8000
8000
8000
8000
8000
8000
FFC0
ENDCHAR
STARTCHAR 013A
ENCODING 314
SWIDTH 252 0
DWIDTH 7 0
BBX 4 27 3 0
BITMAP
20
60
40
80
00
00
80
80
80
80
80
80
80
80
80
80
80
80
80
80
80
80
80
80
80
80
F0
ENDCHAR
STARTCHAR 013D
ENCODING 317
SWIDTH 504 0
DWIDTH 14 0
BBX 13 25 0 0
BITMAP
8600
CC00
7800
3000
0000
0000
1000
1000
1000
1000
1000
1000
1000
1000
1000
1000
1000
1000
1000
1000
2000
2000
2000
2000
1FF8
ENDCHAR
STARTCHAR 013E
ENCODING 318
SWIDTH 288 0
DWIDTH 8 0
BBX 4 21 3 0
BITMAP
B0
B0
90
90
90
A0
80
80
80
80
80
80
80
80
80
80
80
80
80
80
F0
ENDCHAR
STARTCHAR 0143
ENCODING 323
SWIDTH 720 0
DWIDTH 20 0
BBX 14 26 3 0
BITMAP
0040
0040
0080
0100
0100
0000
0000
8004
C004
A004
A004
9004
8804
8C04
8404
8204
8104
8184
8084
8044
8024
8024
8014
800C
800C
8004
ENDCHAR
STARTCHAR 0144
ENCODING 324
SWIDTH 612 0
DWIDTH 17 0
BBX 12 21 3 0
BITMAP
0080
0100
0100
0200
0400
0000
9F80
B0C0
C020
8020
8010
8010
8010
8010
8010
8010
8010
8010
8010
8010
8010
ENDCHAR
STARTCHAR 0147
ENCODING 327
SWIDTH 720 0
DWIDTH 20 0
BBX 14 25 3 0
BITMAP
0860
0CC0
0780
0300
0000
0000
8004
C004
A004
A004
9004
8804
8C04
8404
8204
8104
8184
8084
8044
8024
8024
8014
800C
800C
8004
ENDCHAR
STARTCHAR 0148
ENCODING 328
SWIDTH 612 0
DWIDTH 17 0
BBX 12 20 3 0
BITMAP
3080
1900
0A00
0400
0000
9F80
B0C0
C020
8020
8010
8010
8010
8010
8010
8010
8010
8010
8010
8010
8010
ENDCHAR
STARTCHAR 014C
ENCODING 332
SWIDTH 720 0
DWIDTH 20 0
BBX 17 23 2 0
BITMAP
0FF000
000000
000000
03E000
0C1800
300400
200200
400100
C00100
800080
800080
800080
800080
800080
800080
800080
800080
800100
400100
600200
300600
180C00
07F000
ENDCHAR
STARTCHAR 014D
ENCODING 333
SWIDTH 576 0
DWIDTH 16 0
BBX 13 18 2 0
BITMAP
1FC0
0000
0000
0F80
3060
6020
4010
8010
8008
8008
8008
8008
8008
8018
4010
4030
3060
1F80
ENDCHAR
STARTCHAR 0152
ENCODING 338
SWIDTH 936 0
DWIDTH 26 0
BBX 23 19 1 0
BITMAP
07FFFE
180800
300800
200800
400800
400800
400800
800800
800800
800FFC
800800
400800
400800
400800
600800
200800
100800
0C0800
03FFFE
ENDCHAR
STARTCHAR 0153
ENCODING 339
SWIDTH 1008 0
DWIDTH 28 0
BBX 25 15 2 0
BITMAP
0F80F800
30410600
60220300
40140100
80140080
80080080
80080080
800FFF80
80080000
80080000
801C0000
40140100
40220100
30630600
1F80FC00
ENDCHAR
STARTCHAR 0154
ENCODING 340
SWIDTH 576 0
DWIDTH 16 0
BBX 12 26 3 0
BITMAP
0100
0200
0200
0400
0800
0000
0000
FFC0
8060
8020
8010
8010
8010
8010
8020
8020
83C0
FE00
8200
8200
8100
8080
80C0
8040
8020
8030
ENDCHAR
STARTCHAR 0155
ENCODING 341
SWIDTH 288 0
DWIDTH 8 0
BBX 6 21 2 0
BITMAP
08
08
10
20
20
00
8C
BC
C0
C0
80
80
80
80
80
80
80
80
80
80
80
ENDCHAR
STARTCHAR 0158
ENCODING 344
SWIDTH 576 0
DWIDTH 16 0
BBX 12 25 3 0
BITMAP
6100
2200
1400
0800
0000
0000
FFC0
8060
8020
8010
8010
8010
8010
8020
8020
83C0
FE00
8200
8200
8100
8080
80C0
8040
8020
8030
ENDCHAR
STARTCHAR 0159
ENCODING 345
SWIDTH 288 0
DWIDTH 8 0
BBX 7 20 1 0
BITMAP
86
4C
38
00
00
46
5E
60
60
40
40
40
40
40
40
40
40
40
40
40
ENDCHAR
STARTCHAR 015A
ENCODING 346
SWIDTH 576 0
DWIDTH 16 0
BBX 13 26 2 0
BITMAP
00C0
0080
0100
0100
0200
0000
0F80
30C0
4020
C010
8010
8008
8000
4000
6000
1E00
01C0
0030
0010
0008
8008
8008
8018
4010
2020
1FC0
ENDCHAR
STARTCHAR 015B
ENCODING 347
SWIDTH 468 0
DWIDTH 13 0
BBX 10 21 2 0
BITMAP
0100
0300
0200
0400
0400
0000
3E00
4180
80C0
8040
8000
8000
6000
1F00
0080
0040
8040
8040
8040
6080
3F00
ENDCHAR
STARTCHAR 015E
ENCODING 350
SWIDTH 576 0
DWIDTH 16 0
BBX 13 27 2 -7
BITMAP
0F80
30C0
4020
C010
8010
8008
8000
4000
6000
1E00
01C0
0030
0010
0008
8008
8008
8018
4010
2020
1FC0
0200
0400
0780
0040
0040
0080
0700
ENDCHAR
STARTCHAR 015F
ENCODING 351
SWIDTH 468 0
DWIDTH 13 0
BBX 10 22 2 -7
BITMAP
3E00
4180
80C0
8040
8000
8000
6000
1F00
0080
0040
8040
8040
8040
6080
3F00
0400
0800
0F00
0080
0080
0100
0E00
ENDCHAR
STARTCHAR 0160
ENCODING 352
SWIDTH 576 0
DWIDTH 16 0
BBX 13 25 2 0
BITMAP
10C0
0880
0500
0200
0000
0F80
30C0
4020
C010
8010
8008
8000
4000
6000
1E00
01C0
0030
0010
0008
8008
8008
8018
4010
2020
1FC0
ENDCHAR
STARTCHAR 0161
ENCODING 353
SWIDTH 468 0
DWIDTH 13 0
BBX 10 20 2 0
BITMAP
6100
1200
1C00
0000
0000
3E00
4180
80C0
8040
8000
8000
6000
1F00
0080
0040
8040
8040
8040
6080
3F00
ENDCHAR
STARTCHAR 0162
ENCODING 354
SWIDTH 576 0
DWIDTH 16 0
BBX 14 26 1 -7
BITMAP
FFFC
0100
0100
0100
0100
0100
0100
0100
0100
0100
0100
0100
0100
0100
0100
0100
0100
0100
0100
0200
0200
03C0
0040
0040
0040
0380
ENDCHAR
STARTCHAR 0163
ENCODING 355
SWIDTH 360 0
DWIDTH 10 0
BBX 9 26 1 -7
BITMAP
1000
1000
1000
1000
FF00
1000
1000
1000
1000
1000
1000
1000
1000
1000
1000
1000
1000
1000
0F00
0800
0800
0F00
0100
0080
0100
0E00
ENDCHAR
STARTCHAR 0164
ENCODING 356
SWIDTH 576 0
DWIDTH 16 0
BBX 14 25 1 0
BITMAP
0860
04C0
0380
0300
0000
0000
FFFC
0100
0100
0100
0100
0100
0100
0100
0100
0100
0100
0100
0100
0100
0100
0100
0100
0100
0100
ENDCHAR
STARTCHAR 0165
ENCODING 357
SWIDTH 432 0
DWIDTH 12 0
BBX 11 21 1 0
BITMAP
00C0
00E0
1020
1020
1040
1080
FF00
1000
1000
1000
1000
1000
1000
1000
1000
1000
1000
1000
1000
1000
0F00
ENDCHAR
STARTCHAR 0166
ENCODING 358
SWIDTH 576 0
DWIDTH 16 0
BBX 14 19 1 0
BITMAP
FFFC
0100
0100
0100
0100
0100
0100
3FF8
0100
0100
0100
0100
0100
0100
0100
0100
0100
0100
0100
ENDCHAR
STARTCHAR 0167
ENCODING 359
SWIDTH 360 0
DWIDTH 10 0
BBX 8 19 1 0
BITMAP
10
10
10
10
FF
10
10
10
10
10
FF
10
10
10
10
10
10
10
0F
ENDCHAR
STARTCHAR 0168
ENCODING 360
SWIDTH 648 0
DWIDTH 18 0
BBX 15 25 2 0
BITMAP
0620
0920
08C0
0000
0000
0000
8002
8002
8002
8002
8002
8002
8002
8002
8002
8002
8002
8002
8002
8002
4004
4004
2008
3018
0FE0
ENDCHAR
STARTCHAR 0169
ENCODING 361
SWIDTH 612 0
DWIDTH 17 0
BBX 12 20 3 0
BITMAP
3880
2500
0200
0000
0000
8010
8010
8010
8010
8010
8010
8010
8010
8010
8010
8010
8030
C050
6090
3F10
ENDCHAR
STARTCHAR 016A
ENCODING 362
SWIDTH 648 0
DWIDTH 18 0
BBX 15 23 2 0
BITMAP
0FE0
0000
0000
0000
8002
8002
8002
8002
8002
8002
8002
8002
8002
8002
8002
8002
8002
8002
4004
4004
2008
3018
0FE0
ENDCHAR
STARTCHAR 016B
ENCODING 363
SWIDTH 612 0
DWIDTH 17 0
BBX 12 18 3 0
BITMAP
3F00
0000
0000
8010
8010
8010
8010
8010
8010
8010
8010
8010
8010
8010
8030
C050
6090
3F10
ENDCHAR
STARTCHAR 016E
ENCODING 366
SWIDTH 648 0
DWIDTH 18 0
BBX 15 26 2 0
BITMAP
0380
0440
0480
0380
0000
0000
0000
8002
8002
8002
8002
8002
8002
8002
8002
8002
8002
8002
8002
8002
8002
4004
4004
2008
3018
0FE0
ENDCHAR
STARTCHAR 016F
ENCODING 367
SWIDTH 612 0
DWIDTH 17 0
BBX 12 21 3 1
BITMAP
1E00
1200
1200
0C00
0000
0000
8010
8010
8010
8010
8010
8010
8010
8010
8010
8010
8010
8030
C050
6090
3F10
ENDCHAR
STARTCHAR 0172
ENCODING 370
SWIDTH 648 0
DWIDTH 18 0
BBX 15 23 2 -4
BITMAP
8002
8002
8002
8002
8002
8002
8002
8002
8002
8002
8002
8002
8002
8002
4004
4004
2008
3018
0FE0
0100
0200
0200
0380
ENDCHAR
STARTCHAR 0173
ENCODING 371
SWIDTH 612 0
DWIDTH 17 0
BBX 12 19 3 -4
BITMAP
8010
8010
8010
8010
8010
8010
8010
8010
8010
8010
8010
8030
C050
6090
3F10
0060
0080
0080
0070
ENDCHAR
STARTCHAR 0174
ENCODING 372
SWIDTH 972 0
DWIDTH 27 0
BBX 26 25 1 0
BITMAP
000C0000
00120000
00230000
00418000
00000000
00000000
800C0040
800C0080
80140080
40120080
40120080
40220100
40210100
20210100
20410200
20408200
10408200
10808200
10804400
10804400
09004400
09002400
0A002800
06002800
06001800
ENDCHAR
STARTCHAR 0175
ENCODING 373
SWIDTH 792 0
DWIDTH 22 0
BBX 20 20 1 0
BITMAP
007000
009000
010800
000400
000000
802010
406010
406010
405020
40D020
209020
208820
210840
110840
110440
130480
0A0480
0A0280
0E0300
0C0300
ENDCHAR
STARTCHAR 0176
ENCODING 374
SWIDTH 576 0
DWIDTH 16 0
BBX 12 25 2 0
BITMAP
0600
0900
1080
2040
0000
0000
8010
8010
4020
4060
2040
20C0
1080
1980
0900
0F00
0600
0600
0400
0400
0400
0400
0400
0400
0400
ENDCHAR
STARTCHAR 0177
ENCODING 375
SWIDTH 504 0
DWIDTH 14 0
BBX 13 25 1 -5
BITMAP
0700
0900
1080
0040
0000
8008
C010
4010
4020
2020
2040
1040
1040
1080
0880
0900
0500
0600
0600
0600
0400
0400
0800
1800
F000
ENDCHAR
STARTCHAR 0178
ENCODING 376
SWIDTH 576 0
DWIDTH 16 0
BBX 12 24 2 0
BITMAP
1980
1800
0000
0000
0000
8010
8010
4020
4060
2040
20C0
1080
1980
0900
0F00
0600
0600
0400
0400
0400
0400
0400
0400
0400
ENDCHAR
STARTCHAR 0179
ENCODING 377
SWIDTH 576 0
DWIDTH 16 0
BBX 13 26 2 0
BITMAP
00C0
0080
0100
0100
0200
0000
0000
FFF8
0010
0020
0060
0040
0080
0180
0100
0200
0600
0400
0800
1800
1000
2000
6000
4000
8000
FFF8
ENDCHAR
STARTCHAR 017A
ENCODING 378
SWIDTH 468 0
DWIDTH 13 0
BBX 12 21 1 0
BITMAP
0080
0080
0100
0200
0200
0000
7FF0
0020
0020
0040
0080
0100
0300
0200
0400
0800
1000
1000
2000
4000
FFF0
ENDCHAR
STARTCHAR 017B
ENCODING 379
SWIDTH 576 0
DWIDTH 16 0
BBX 13 24 2 0
BITMAP
0600
0200
0000
0000
0000
FFF8
0010
0020
0060
0040
0080
0180
0100
0200
0600
0400
0800
1800
1000
2000
6000
4000
8000
FFF8
ENDCHAR
STARTCHAR 017C
ENCODING 380
SWIDTH 468 0
DWIDTH 13 0
BBX 12 19 1 1
BITMAP
0600
0000
0000
0000
7FF0
0020
0020
0040
0080
0100
0300
0200
0400
0800
1000
1000
2000
4000
FFF0
ENDCHAR
STARTCHAR 017D
ENCODING 381
SWIDTH 576 0
DWIDTH 16 0
BBX 13 25 2 0
BITMAP
1040
0880
0500
0200
0000
0000
FFF8
0010
0020
0060
0040
0080
0180
0100
0200
0600
0400
0800
1800
1000
2000
6000
4000
8000
FFF8
ENDCHAR
STARTCHAR 017E
ENCODING 382
SWIDTH 468 0
DWIDTH 13 0
BBX 12 20 1 0
BITMAP
10C0
0980
0700
0000
0000
7FF0
0020
0020
0040
0080
0100
0300
0200
0400
0800
1000
1000
2000
4000
FFF0
ENDCHAR
STARTCHAR 01A0
ENCODING 416
SWIDTH 720 0
DWIDTH 20 0
BBX 17 22 2 0
BITMAP
000200
000200
03E400
0C1800
300400
200200
400100
C00100
800080
800080
800080
800080
800080
800080
800080
800080
800100
400100
600200
300600
180C00
07F000
ENDCHAR
STARTCHAR 01A1
ENCODING 417
SWIDTH 576 0
DWIDTH 16 0
BBX 13 17 2 0
BITMAP
0018
0010
0FF0
3060
6020
4010
8018
8008
8008
8008
8008
8008
8018
4010
4030
3060
1F80
ENDCHAR
STARTCHAR 01AF
ENCODING 431
SWIDTH 648 0
DWIDTH 18 0
BBX 18 22 2 0
BITMAP
000040
000040
000080
800300
800200
800200
800200
800200
800200
800200
800200
800200
800200
800200
800200
800200
800200
400400
400400
200800
301800
0FE000
ENDCHAR
STARTCHAR 01B0
ENCODING 432
SWIDTH 612 0
DWIDTH 17 0
BBX 15 17 3 0
BITMAP
0006
0004
801C
8010
8010
8010
8010
8010
8010
8010
8010
8010
8010
8030
C050
6090
3F10
ENDCHAR
STARTCHAR 02C6
ENCODING 710
SWIDTH 360 0
DWIDTH 10 0
BBX 7 3 2 17
BITMAP
30
48
86
ENDCHAR
STARTCHAR 02C7
ENCODING 711
SWIDTH 324 0
DWIDTH 9 0
BBX 7 3 1 17
BITMAP
C2
64
38
ENDCHAR
STARTCHAR 02D8
ENCODING 728
SWIDTH 360 0
DWIDTH 10 0
BBX 8 2 1 17
BITMAP
C3
3C
ENDCHAR
STARTCHAR 02D9
ENCODING 729
SWIDTH 108 0
DWIDTH 3 0
BBX 2 1 1 18
BITMAP
C0
ENDCHAR
STARTCHAR 02DA
ENCODING 730
SWIDTH 180 0
DWIDTH 5 0
BBX 4 4 1 18
BITMAP
F0
90
90
60
ENDCHAR
STARTCHAR 02DB
ENCODING 731
SWIDTH 180 0
DWIDTH 5 0
BBX 3 5 1 -5
BITMAP
40
80
80
80
60
ENDCHAR
STARTCHAR 02DC
ENCODING 732
SWIDTH 360 0
DWIDTH 10 0
BBX 7 3 2 17
BITMAP
E2
94
88
ENDCHAR
STARTCHAR 0300
ENCODING 768
SWIDTH 0 0
DWIDTH 0 0
BBX 3 5 -5 17
BITMAP
80
C0
40
20
20
ENDCHAR
STARTCHAR 0301
ENCODING 769
SWIDTH 0 0
DWIDTH 0 0
BBX 3 4 -4 17
BITMAP
20
60
40
80
ENDCHAR
STARTCHAR 0302
ENCODING 770
SWIDTH 0 0
DWIDTH 0 0
BBX 7 3 -9 17
BITMAP
18
24
C2
ENDCHAR
STARTCHAR 0303
ENCODING 771
SWIDTH 0 0
DWIDTH 0 0
BBX 7 3 -8 17
BITMAP
62
92
8C
ENDCHAR
STARTCHAR 0304
ENCODING 772
SWIDTH 0 0
DWIDTH 0 0
BBX 7 1 -8 18
BITMAP
FE
ENDCHAR
STARTCHAR 0306
ENCODING 774
SWIDTH 0 0
DWIDTH 0 0
BBX 8 2 -9 17
BITMAP
83
3C
ENDCHAR
STARTCHAR 0307
ENCODING 775
SWIDTH 0 0
DWIDTH 0 0
BBX 2 1 -4 18
BITMAP
C0
ENDCHAR
STARTCHAR 0308
ENCODING 776
SWIDTH 0 0
DWIDTH 0 0
BBX 6 1 -8 18
BITMAP
CC
ENDCHAR
STARTCHAR 0309
ENCODING 777
SWIDTH 0 0
DWIDTH 0 0
BBX 4 5 -5 17
BITMAP
E0
90
10
20
40
ENDCHAR
STARTCHAR 030A
ENCODING 778
SWIDTH 0 0
DWIDTH 0 0
BBX 5 5 -6 17
BITMAP
20
50
88
90
60
ENDCHAR
STARTCHAR 030C
ENCODING 780
SWIDTH 0 0
DWIDTH 0 0
BBX 7 3 -9 17
BITMAP
C2
64
38
ENDCHAR
STARTCHAR 031B
ENCODING 795
SWIDTH 0 0
DWIDTH 0 0
BBX 4 3 -5 14
BITMAP
10
10
E0
ENDCHAR
STARTCHAR 0323
ENCODING 803
SWIDTH 0 0
DWIDTH 0 0
BBX 2 2 -3 -6
BITMAP
C0
40
ENDCHAR
STARTCHAR 0327
ENCODING 807
SWIDTH 0 0
DWIDTH 0 0
BBX 5 7 -6 -7
BITMAP
40
40
F0
08
08
08
70
ENDCHAR
STARTCHAR 0328
ENCODING 808
SWIDTH 0 0
DWIDTH 0 0
BBX 3 5 -4 -5
BITMAP
40
80
80
80
60
ENDCHAR
STARTCHAR 1E80
ENCODING 7808
SWIDTH 972 0
DWIDTH 27 0
BBX 26 26 1 0
BITMAP
00600000
00200000
00100000
00100000
00080000
00000000
00000000
800C0040
800C0080
80140080
40120080
40120080
40220100
40210100
20210100
20410200
20408200
10408200
10808200
10804400
10804400
09004400
09002400
0A002800
06002800
06001800
ENDCHAR
STARTCHAR 1E81
ENCODING 7809
SWIDTH 792 0
DWIDTH 22 0
BBX 20 21 1 0
BITMAP
010000
008000
008000
004000
002000
000000
802010
406010
406010
405020
40D020
209020
208820
210840
110840
110440
130480
0A0480
0A0280
0E0300
0C0300
ENDCHAR
STARTCHAR 1E82
ENCODING 7810
SWIDTH 972 0
DWIDTH 27 0
BBX 26 26 1 0
BITMAP
00010000
00020000
00020000
00040000
00000000
00000000
00000000
800C0040
800C0080
80140080
40120080
40120080
40220100
40210100
20210100
20410200
20408200
10408200
10808200
10804400
10804400
09004400
09002400
0A002800
06002800
06001800
ENDCHAR
STARTCHAR 1E83
ENCODING 7811
SWIDTH 792 0
DWIDTH 22 0
BBX 20 21 1 0
BITMAP
000C00
000800
001000
001000
002000
000000
802010
406010
406010
405020
40D020
209020
208820
210840
110840
110440
130480
0A0480
0A0280
0E0300
0C0300
ENDCHAR
STARTCHAR 1E84
ENCODING 7812
SWIDTH 972 0
DWIDTH 27 0
BBX 26 24 1 0
BITMAP
00330000
00220000
00000000
00000000
00000000
800C0040
800C0080
80140080
40120080
40120080
40220100
40210100
20210100
20410200
20408200
10408200
10808200
10804400
10804400
09004400
09002400
0A002800
06002800
06001800
ENDCHAR
STARTCHAR 1E85
ENCODING 7813
SWIDTH 792 0
DWIDTH 22 0
BBX 20 19 1 1
BITMAP
019800
000000
000000
000000
802010
406010
406010
405020
40D020
209020
208820
210840
110840
110440
130480
0A0480
0A0280
0E0300
0C0300
ENDCHAR
STARTCHAR 1EA0
ENCODING 7840
SWIDTH 684 0
DWIDTH 19 0
BBX 15 25 2 -6
BITMAP
0100
0280
0280
0440
0440
0440
0820
0820
1010
1010
1010
2008
3FF8
2008
4004
4004
8002
8002
8002
0000
0000
0000
0000
0300
0100
ENDCHAR
STARTCHAR 1EA1
ENCODING 7841
SWIDTH 612 0
DWIDTH 17 0
BBX 13 21 2 -6
BITMAP
1F88
3048
4028
C018
8018
8018
8008
8008
8008
8018
8018
C018
4028
2048
1F88
0000
0000
0000
0000
0300
0200
ENDCHAR
STARTCHAR 1EA2
ENCODING 7842
SWIDTH 684 0
DWIDTH 19 0
BBX 15 26 2 0
BITMAP
0380
0440
0040
0080
0100
0000
0000
0100
0280
0280
0440
0440
0440
0820
0820
1010
1010
1010
2008
3FF8
2008
4004
4004
8002
8002
8002
ENDCHAR
STARTCHAR 1EA3
ENCODING 7843
SWIDTH 612 0
DWIDTH 17 0
BBX 13 21 2 0
BITMAP
0700
0880
0080
0100
0200
0000
1F88
3048
4028
C018
8018
8018
8008
8008
8008
8018
8018
C018
4028
2048
1F88
ENDCHAR
STARTCHAR 1EA4
ENCODING 7844
SWIDTH 684 0
DWIDTH 19 0
BBX 15 29 2 0
BITMAP
0004
0008
0008
0010
0380
06C0
0C40
0820
0000
0000
0100
0280
0280
0440
0440
0440
0820
0820
1010
1010
1010
2008
3FF8
2008
4004
4004
8002
8002
8002
ENDCHAR
STARTCHAR 1EA5
ENCODING 7845
SWIDTH 612 0
DWIDTH 17 0
BBX 13 24 2 0
BITMAP
0008
0010
0020
0020
0700
0D80
18C0
0000
0000
1F88
3048
4028
C018
8018
8018
8008
8008
8008
8018
8018
C018
4028
2048
1F88
ENDCHAR
STARTCHAR 1EA6
ENCODING 7846
SWIDTH 684 0
DWIDTH 19 0
BBX 15 29 2 0
BITMAP
0080
0080
0040
0020
0380
06C0
0C40
0820
0000
0000
0100
0280
0280
0440
0440
0440
0820
0820
1010
1010
1010
2008
3FF8
2008
4004
4004
8002
8002
8002
ENDCHAR
STARTCHAR 1EA7
ENCODING 7847
SWIDTH 612 0
DWIDTH 17 0
BBX 13 24 2 0
BITMAP
0100
0180
0080
0040
0700
0D80
18C0
0000
0000
1F88
3048
4028
C018
8018
8018
8008
8008
8008
8018
8018
C018
4028
2048
1F88
ENDCHAR
STARTCHAR 1EA8
ENCODING 7848
SWIDTH 684 0
DWIDTH 19 0
BBX 15 29 2 0
BITMAP
0078
0008
0008
0010
0380
06C0
0C40
0820
0000
0000
0100
0280
0280
0440
0440
0440
0820
0820
1010
1010
1010
2008
3FF8
2008
4004
4004
8002
8002
8002
ENDCHAR
STARTCHAR 1EA9
ENCODING 7849
SWIDTH 612 0
DWIDTH 17 0
BBX 13 24 2 0
BITMAP
00F0
0010
0010
0020
0700
0D80
18C0
0000
0000
1F88
3048
4028
C018
8018
8018
8008
8008
8008
8018
8018
C018
4028
2048
1F88
ENDCHAR
STARTCHAR 1EAA
ENCODING 7850
SWIDTH 684 0
DWIDTH 19 0
BBX 15 29 2 0
BITMAP
0020
0F20
08C0
0000
0380
06C0
0C40
0820
0000
0000
0100
0280
0280
0440
0440
0440
0820
0820
1010
1010
1010
2008
3FF8
2008
4004
4004
8002
8002
8002
ENDCHAR
STARTCHAR 1EAB
ENCODING 7851
SWIDTH 612 0
DWIDTH 17 0
BBX 13 24 2 0
BITMAP
0C40
1A40
1180
0000
0700
0D80
18C0
0000
0000
1F88
3048
4028
C018
8018
8018
8008
8008
8008
8018
8018
C018
4028
2048
1F88
ENDCHAR
STARTCHAR 1EAC
ENCODING 7852
SWIDTH 684 0
DWIDTH 19 0
BBX 15 31 2 -6
BITMAP
0380
06C0
0C40
0820
0000
0000
0100
0280
0280
0440
0440
0440
0820
0820
1010
1010
1010
2008
3FF8
2008
4004
4004
8002
8002
8002
0000
0000
0000
0000
0300
0100
ENDCHAR
STARTCHAR 1EAD
ENCODING 7853
SWIDTH 612 0
DWIDTH 17 0
BBX 13 26 2 -6
BITMAP
0700
0D80
18C0
0000
0000
1F88
3048
4028
C018
8018
8018
8008
8008
8008
8018
8018
C018
4028
2048
1F88
0000
0000
0000
0000
0300
0200
ENDCHAR
STARTCHAR 1EAE
ENCODING 7854
SWIDTH 684 0
DWIDTH 19 0
BBX 15 29 2 0
BITMAP
0060
0040
0080
0080
0000
0820
07C0
0000
0000
0000
0100
0280
0280
0440
0440
0440
0820
0820
1010
1010
1010
2008
3FF8
2008
4004
4004
8002
8002
8002
ENDCHAR
STARTCHAR 1EAF
ENCODING 7855
SWIDTH 612 0
DWIDTH 17 0
BBX 13 24 2 0
BITMAP
00C0
0080
0100
0100
0000
1040
0F80
0000
0000
1F88
3048
4028
C018
8018
8018
8008
8008
8008
8018
8018
C018
4028
2048
1F88
ENDCHAR
STARTCHAR 1EB0
ENCODING 7856
SWIDTH 684 0
DWIDTH 19 0
BBX 15 29 2 0
BITMAP
0800
0400
0200
0200
0000
0820
07C0
0000
0000
0000
0100
0280
0280
0440
0440
0440
0820
0820
1010
1010
1010
2008
3FF8
2008
4004
4004
8002
8002
8002
ENDCHAR
STARTCHAR 1EB1
ENCODING 7857
SWIDTH 612 0
DWIDTH 17 0
BBX 13 24 2 0
BITMAP
1800
0800
0400
0400
0000
1040
0F80
0000
0000
1F88
3048
4028
C018
8018
8018
8008
8008
8008
8018
8018
C018
4028
2048
1F88
ENDCHAR
STARTCHAR 1EB2
ENCODING 7858
SWIDTH 684 0
DWIDTH 19 0
BBX 15 29 2 0
BITMAP
0380
0440
0040
0080
0000
0820
07C0
0000
0000
0000
0100
0280
0280
0440
0440
0440
0820
0820
1010
1010
1010
2008
3FF8
2008
4004
4004
8002
8002
8002
ENDCHAR
STARTCHAR 1EB3
ENCODING 7859
SWIDTH 612 0
DWIDTH 17 0
BBX 13 24 2 0
BITMAP
0700
0080
0080
0100
0000
1040
0F80
0000
0000
1F88
3048
4028
C018
8018
8018
8008
8008
8008
8018
8018
C018
4028
2048
1F88
ENDCHAR
STARTCHAR 1EB4
ENCODING 7860
SWIDTH 684 0
DWIDTH 19 0
BBX 15 28 2 0
BITMAP
0620
0960
0080
0000
0820
07C0
0000
0000
0000
0100
0280
0280
0440
0440
0440
0820
0820
1010
1010
1010
2008
3FF8
2008
4004
4004
8002
8002
8002
ENDCHAR
STARTCHAR 1EB5
ENCODING 7861
SWIDTH 612 0
DWIDTH 17 0
BBX 13 23 2 0
BITMAP
0C40
13C0
0000
0000
1040
0F80
0000
0000
1F88
3048
4028
C018
8018
8018
8008
8008
8008
8018
8018
C018
4028
2048
1F88
ENDCHAR
STARTCHAR 1EB6
ENCODING 7862
SWIDTH 684 0
DWIDTH 19 0
BBX 15 30 2 -6
BITMAP
0820
07C0
0000
0000
0000
0100
0280
0280
0440
0440
0440
0820
0820
1010
1010
1010
2008
3FF8
2008
4004
4004
8002
8002
8002
0000
0000
0000
0000
0300
0100
ENDCHAR
STARTCHAR 1EB7
ENCODING 7863
SWIDTH 612 0
DWIDTH 17 0
BBX 13 25 2 -6
BITMAP
1040
0F80
0000
0000
1F88
3048
4028
C018
8018
8018
8008
8008
8008
8018
8018
C018
4028
2048
1F88
0000
0000
0000
0000
0300
0200
ENDCHAR
STARTCHAR 1EB8
ENCODING 7864
SWIDTH 540 0
DWIDTH 15 0
BBX 11 24 3 -6
BITMAP
FFE0
8000
8000
8000
8000
8000
8000
8000
8000
FF80
8000
8000
8000
8000
8000
8000
8000
8000
FFE0
0000
0000
0000
0000
0C00
ENDCHAR
STARTCHAR 1EB9
ENCODING 7865
SWIDTH 576 0
DWIDTH 16 0
BBX 13 21 2 -6
BITMAP
0F80
3060
6020
4010
8010
8010
8008
FFF8
8000
8000
8000
4010
4030
3060
1F80
0000
0000
0000
0000
0600
0200
ENDCHAR
STARTCHAR 1EBA
ENCODING 7866
SWIDTH 540 0
DWIDTH 15 0
BBX 11 26 3 0
BITMAP
0C00
1200
0200
0200
0400
0000
0000
FFE0
8000
8000
8000
8000
8000
8000
8000
8000
FF80
8000
8000
8000
8000
8000
8000
8000
8000
FFE0
ENDCHAR
STARTCHAR 1EBB
ENCODING 7867
SWIDTH 576 0
DWIDTH 16 0
BBX 13 21 2 0
BITMAP
0700
0880
0080
0100
0200
0000
0F80
3060
6020
4010
8010
8010
8008
FFF8
8000
8000
8000
4010
4030
3060
1F80
ENDCHAR
STARTCHAR 1EBC
ENCODING 7868
SWIDTH 540 0
DWIDTH 15 0
BBX 11 25 3 0
BITMAP
1880
2D00
2300
0000
0000
0000
FFE0
8000
8000
8000
8000
8000
8000
8000
8000
FF80
8000
8000
8000
8000
8000
8000
8000
8000
FFE0
ENDCHAR
STARTCHAR 1EBD
ENCODING 7869
SWIDTH 576 0
DWIDTH 16 0
BBX 13 20 2 0
BITMAP
0C40
12C0
1100
0000
0000
0F80
3060
6020
4010
8010
8010
8008
FFF8
8000
8000
8000
4010
4030
3060
1F80
ENDCHAR
STARTCHAR 1EBE
ENCODING 7870
SWIDTH 540 0
DWIDTH 15 0
BBX 12 29 3 0
BITMAP
0030
0020
0040
0080
0C00
1200
2100
6080
0000
0000
FFE0
8000
8000
8000
8000
8000
8000
8000
8000
FF80
8000
8000
8000
8000
8000
8000
8000
8000
FFE0
ENDCHAR
STARTCHAR 1EBF
ENCODING 7871
SWIDTH 576 0
DWIDTH 16 0
BBX 13 24 2 0
BITMAP
0008
0010
0020
0020
0700
0980
18C0
0000
0000
0F80
3060
6020
4010
8010
8010
8008
FFF8
8000
8000
8000
4010
4030
3060
1F80
ENDCHAR
STARTCHAR 1EC0
ENCODING 7872
SWIDTH 540 0
DWIDTH 15 0
BBX 11 29 3 0
BITMAP
0600
0200
0100
0100
0C00
1200
2100
6080
0000
0000
FFE0
8000
8000
8000
8000
8000
8000
8000
8000
FF80
8000
8000
8000
8000
8000
8000
8000
8000
FFE0
ENDCHAR
STARTCHAR 1EC1
ENCODING 7873
SWIDTH 576 0
DWIDTH 16 0
BBX 13 24 2 0
BITMAP
0100
0100
0080
0040
0700
0980
18C0
0000
0000
0F80
3060
6020
4010
8010
8010
8008
FFF8
8000
8000
8000
4010
4030
3060
1F80
ENDCHAR
STARTCHAR 1EC2
ENCODING 7874
SWIDTH 540 0
DWIDTH 15 0
BBX 11 29 3 0
BITMAP
01C0
0020
0020
0040
0C80
1200
2100
6080
0000
0000
FFE0
8000
8000
8000
8000
8000
8000
8000
8000
FF80
8000
8000
8000
8000
8000
8000
8000
8000
FFE0
ENDCHAR
STARTCHAR 1EC3
ENCODING 7875
SWIDTH 576 0
DWIDTH 16 0
BBX 13 24 2 0
BITMAP
00F0
0010
0010
0020
0700
0980
18C0
0000
0000
0F80
3060
6020
4010
8010
8010
8008
FFF8
8000
8000
8000
4010
4030
3060
1F80
ENDCHAR
STARTCHAR 1EC4
ENCODING 7876
SWIDTH 540 0
DWIDTH 15 0
BBX 11 29 3 0
BITMAP
0080
3C80
2700
0000
0C00
1200
2100
6080
0000
0000
FFE0
8000
8000
8000
8000
8000
8000
8000
8000
FF80
8000
8000
8000
8000
8000
8000
8000
8000
FFE0
ENDCHAR
STARTCHAR 1EC5
ENCODING 7877
SWIDTH 576 0
DWIDTH 16 0
BBX 13 24 2 0
BITMAP
0C40
1240
1180
0000
0700
0980
18C0
0000
0000
0F80
3060
6020
4010
8010
8010
8008
FFF8
8000
8000
8000
4010
4030
3060
1F80
ENDCHAR
STARTCHAR 1EC6
ENCODING 7878
SWIDTH 540 0
DWIDTH 15 0
BBX 11 30 3 -6
BITMAP
0C00
1200
2100
6080
0000
0000
FFE0
8000
8000
8000
8000
8000
8000
8000
8000
FF80
8000
8000
8000
8000
8000
8000
8000
8000
FFE0
0000
0000
0000
0000
0C00
ENDCHAR
STARTCHAR 1EC7
ENCODING 7879
SWIDTH 576 0
DWIDTH 16 0
BBX 13 26 2 -6
BITMAP
0700
0980
18C0
0000
0000
0F80
3060
6020
4010
8010
8010
8008
FFF8
8000
8000
8000
4010
4030
3060
1F80
0000
0000
0000
0000
0600
0200
ENDCHAR
STARTCHAR 1EC8
ENCODING 7880
SWIDTH 216 0
DWIDTH 6 0
BBX 4 26 1 0
BITMAP
60
90
10
10
20
00
00
20
20
20
20
20
20
20
20
20
20
20
20
20
20
20
20
20
20
20
ENDCHAR
STARTCHAR 1EC9
ENCODING 7881
SWIDTH 216 0
DWIDTH 6 0
BBX 4 21 1 0
BITMAP
F0
90
10
10
20
00
00
40
40
40
40
40
40
40
40
40
40
40
40
40
40
ENDCHAR
STARTCHAR 1ECA
ENCODING 7882
SWIDTH 216 0
DWIDTH 6 0
BBX 2 25 2 -6
BITMAP
40
40
40
40
40
40
40
40
40
40
40
40
40
40
40
40
40
40
40
00
00
00
00
C0
40
ENDCHAR
STARTCHAR 1ECB
ENCODING 7883
SWIDTH 216 0
DWIDTH 6 0
BBX 2 25 2 -5
BITMAP
C0
00
00
00
00
80
80
80
80
80
80
80
80
80
80
80
80
80
80
00
00
00
00
C0
80
ENDCHAR
STARTCHAR 1ECC
ENCODING 7884
SWIDTH 720 0
DWIDTH 20 0
BBX 17 26 2 -6
BITMAP
03E000
0C1800
300400
200200
400100
C00100
800080
800080
800080
800080
800080
800080
800080
800080
800100
400100
600200
300600
180C00
07F000
000000
000000
000000
000000
018000
008000
ENDCHAR
STARTCHAR 1ECD
ENCODING 7885
SWIDTH 576 0
DWIDTH 16 0
BBX 13 21 2 -6
BITMAP
0F80
3060
6020
4010
8010
8008
8008
8008
8008
8008
8018
4010
4030
3060
1F80
0000
0000
0000
0000
0600
0200
ENDCHAR
STARTCHAR 1ECE
ENCODING 7886
SWIDTH 720 0
DWIDTH 20 0
BBX 17 26 2 0
BITMAP
01C000
022000
002000
004000
008000
000000
03E000
0C1800
300400
200200
400100
C00100
800080
800080
800080
800080
800080
800080
800080
800080
800100
400100
600200
300600
180C00
07F000
ENDCHAR
STARTCHAR 1ECF
ENCODING 7887
SWIDTH 576 0
DWIDTH 16 0
BBX 13 21 2 0
BITMAP
0700
0880
0080
0100
0200
0000
0F80
3060
6020
4010
8010
8008
8008
8008
8008
8008
8018
4010
4030
3060
1F80
ENDCHAR
STARTCHAR 1ED0
ENCODING 7888
SWIDTH 720 0
DWIDTH 20 0
BBX 17 29 2 0
BITMAP
000200
000400
000800
000800
01C000
034000
062000
0C1000
000000
03E000
0C1800
300400
200200
400100
C00100
800080
800080
800080
800080
800080
800080
800080
800080
800100
400100
600200
300600
180C00
07F000
ENDCHAR
STARTCHAR 1ED1
ENCODING 7889
SWIDTH 576 0
DWIDTH 16 0
BBX 13 24 2 0
BITMAP
0008
0010
0020
0020
0700
0980
18C0
0000
0000
0F80
3060
6020
4010
8010
8008
8008
8008
8008
8008
8018
4010
4030
3060
1F80
ENDCHAR
STARTCHAR 1ED2
ENCODING 7890
SWIDTH 720 0
DWIDTH 20 0
BBX 17 29 2 0
BITMAP
004000
004000
002000
001000
01C000
034000
062000
0C1000
000000
03E000
0C1800
300400
200200
400100
C00100
800080
800080
800080
800080
800080
800080
800080
800080
800100
400100
600200
300600
180C00
07F000
ENDCHAR
STARTCHAR 1ED3
ENCODING 7891
SWIDTH 576 0
DWIDTH 16 0
BBX 13 24 2 0
BITMAP
0100
0100
0080
0040
0700
0980
18C0
0000
0000
0F80
3060
6020
4010
8010
8008
8008
8008
8008
8008
8018
4010
4030
3060
1F80
ENDCHAR
STARTCHAR 1ED4
ENCODING 7892
SWIDTH 720 0
DWIDTH 20 0
BBX 17 29 2 0
BITMAP
003C00
000400
000400
000800
01C000
034000
062000
0C1000
000000
03E000
0C1800
300400
200200
400100
C00100
800080
800080
800080
800080
800080
800080
800080
800080
800100
400100
600200
300600
180C00
07F000
ENDCHAR
STARTCHAR 1ED5
ENCODING 7893
SWIDTH 576 0
DWIDTH 16 0
BBX 13 24 2 0
BITMAP
00F0
0010
0010
0020
0700
0980
18C0
0000
0000
0F80
3060
6020
4010
8010
8008
8008
8008
8008
8008
8018
4010
4030
3060
1F80
ENDCHAR
STARTCHAR 1ED6
ENCODING 7894
SWIDTH 720 0
DWIDTH 20 0
BBX 17 29 2 0
BITMAP
001000
079000
046000
000000
01C000
034000
062000
0C1000
000000
03E000
0C1800
300400
200200
400100
C00100
800080
800080
800080
800080
800080
800080
800080
800080
800100
400100
600200
300600
180C00
07F000
ENDCHAR
STARTCHAR 1ED7
ENCODING 7895
SWIDTH 576 0
DWIDTH 16 0
BBX 13 24 2 0
BITMAP
0C40
1240
1180
0000
0700
0980
18C0
0000
0000
0F80
3060
6020
4010
8010
8008
8008
8008
8008
8008
8018
4010
4030
3060
1F80
ENDCHAR
STARTCHAR 1ED8
ENCODING 7896
SWIDTH 720 0
DWIDTH 20 0
BBX 17 31 2 -6
BITMAP
01C000
034000
062000
0C1000
000000
03E000
0C1800
300400
200200
400100
C00100
800080
800080
800080
800080
800080
800080
800080
800080
800100
400100
600200
300600
180C00
07F000
000000
000000
000000
000000
018000
008000
ENDCHAR
STARTCHAR 1ED9
ENCODING 7897
SWIDTH 576 0
DWIDTH 16 0
BBX 13 26 2 -6
BITMAP
0700
0980
18C0
0000
0000
0F80
3060
6020
4010
8010
8008
8008
8008
8008
8008
8018
4010
4030
3060
1F80
0000
0000
0000
0000
0600
0200
ENDCHAR
STARTCHAR 1EDA
ENCODING 7898
SWIDTH 720 0
DWIDTH 20 0
BBX 17 26 2 0
BITMAP
003000
002000
004000
004000
008200
000200
03E400
0C1800
300400
200200
400100
C00100
800080
800080
800080
800080
800080
800080
800080
800080
800100
400100
600200
300600
180C00
07F000
ENDCHAR
STARTCHAR 1EDB
ENCODING 7899
SWIDTH 576 0
DWIDTH 16 0
BBX 13 21 2 0
BITMAP
00C0
0080
0100
0100
0218
0010
0FF0
3060
6020
4010
8018
8008
8008
8008
8008
8008
8018
4010
4030
3060
1F80
ENDCHAR
STARTCHAR 1EDC
ENCODING 7900
SWIDTH 720 0
DWIDTH 20 0
BBX 17 26 2 0
BITMAP
040000
020000
020000
010000
008200
000200
03E400
0C1800
300400
200200
400100
C00100
800080
800080
800080
800080
800080
800080
800080
800080
800100
400100
600200
300600
180C00
07F000
ENDCHAR
STARTCHAR 1EDD
ENCODING 7901
SWIDTH 576 0
DWIDTH 16 0
BBX 13 21 2 0
BITMAP
1000
0800
0C00
0400
0218
0010
0FF0
3060
6020
4010
8018
8008
8008
8008
8008
8008
8018
4010
4030
3060
1F80
ENDCHAR
STARTCHAR 1EDE
ENCODING 7902
SWIDTH 720 0
DWIDTH 20 0
BBX 17 26 2 0
BITMAP
01C000
022000
002000
004000
008200
000200
03E400
0C1800
300400
200200
400100
C00100
800080
800080
800080
800080
800080
800080
800080
800080
800100
400100
600200
300600
180C00
07F000
ENDCHAR
STARTCHAR 1EDF
ENCODING 7903
SWIDTH 576 0
DWIDTH 16 0
BBX 13 21 2 0
BITMAP
0700
0880
0080
0100
0218
0010
0FF0
3060
6020
4010
8018
8008
8008
8008
8008
8008
8018
4010
4030
3060
1F80
ENDCHAR
STARTCHAR 1EE0
ENCODING 7904
SWIDTH 720 0
DWIDTH 20 0
BBX 17 25 2 0
BITMAP
031000
049000
046000
000200
000200
03E400
0C1800
300400
200200
400100
C00100
800080
800080
800080
800080
800080
800080
800080
800080
800100
400100
600200
300600
180C00
07F000
ENDCHAR
STARTCHAR 1EE1
ENCODING 7905
SWIDTH 576 0
DWIDTH 16 0
BBX 13 20 2 0
BITMAP
0C40
12C0
1100
0018
0010
0FF0
3060
6020
4010
8018
8008
8008
8008
8008
8008
8018
4010
4030
3060
1F80
ENDCHAR
STARTCHAR 1EE2
ENCODING 7906
SWIDTH 720 0
DWIDTH 20 0
BBX 17 28 2 -6
BITMAP
000200
000200
03E400
0C1800
300400
200200
400100
C00100
800080
800080
800080
800080
800080
800080
800080
800080
800100
400100
600200
300600
180C00
07F000
000000
000000
000000
000000
018000
008000
ENDCHAR
STARTCHAR 1EE3
ENCODING 7907
SWIDTH 576 0
DWIDTH 16 0
BBX 13 23 2 -6
BITMAP
0018
0010
0FF0
3060
6020
4010
8018
8008
8008
8008
8008
8008
8018
4010
4030
3060
1F80
0000
0000
0000
0000
0600
0200
ENDCHAR
STARTCHAR 1EE4
ENCODING 7908
SWIDTH 648 0
DWIDTH 18 0
BBX 15 25 2 -6
BITMAP
8002
8002
8002
8002
8002
8002
8002
8002
8002
8002
8002
8002
8002
8002
4004
4004
2008
3018
0FE0
0000
0000
0000
0000
0380
0100
ENDCHAR
STARTCHAR 1EE5
ENCODING 7909
SWIDTH 612 0
DWIDTH 17 0
BBX 12 21 3 -6
BITMAP
8010
8010
8010
8010
8010
8010
8010
8010
8010
8010
8010
8030
C050
6090
3F10
0000
0000
0000
0000
0C00
0400
ENDCHAR
STARTCHAR 1EE6
ENCODING 7910
SWIDTH 648 0
DWIDTH 18 0
BBX 15 26 2 0
BITMAP
0380
0440
0040
0080
0100
0000
0000
8002
8002
8002
8002
8002
8002
8002
8002
8002
8002
8002
8002
8002
8002
4004
4004
2008
3018
0FE0
ENDCHAR
STARTCHAR 1EE7
ENCODING 7911
SWIDTH 612 0
DWIDTH 17 0
BBX 12 21 3 0
BITMAP
0E00
1200
0200
0200
0400
0000
8010
8010
8010
8010
8010
8010
8010
8010
8010
8010
8010
8030
C050
6090
3F10
ENDCHAR
STARTCHAR 1EE8
ENCODING 7912
SWIDTH 648 0
DWIDTH 18 0
BBX 18 26 2 0
BITMAP
002000
004000
00C000
008000
010040
000040
000080
800300
800200
800200
800200
800200
800200
800200
800200
800200
800200
800200
800200
800200
800200
400400
400400
200800
301800
0FE000
ENDCHAR
STARTCHAR 1EE9
ENCODING 7913
SWIDTH 612 0
DWIDTH 17 0
BBX 15 21 3 0
BITMAP
0100
0100
0200
0400
0406
0004
801C
8010
8010
8010
8010
8010
8010
8010
8010
8010
8010
8030
C050
6090
3F10
ENDCHAR
STARTCHAR 1EEA
ENCODING 7914
SWIDTH 648 0
DWIDTH 18 0
BBX 18 26 2 0
BITMAP
080000
040000
020000
020000
010040
000040
000080
800300
800200
800200
800200
800200
800200
800200
800200
800200
800200
800200
800200
800200
800200
400400
400400
200800
301800
0FE000
ENDCHAR
STARTCHAR 1EEB
ENCODING 7915
SWIDTH 612 0
DWIDTH 17 0
BBX 15 21 3 0
BITMAP
2000
3000
1000
0800
0006
0004
801C
8010
8010
8010
8010
8010
8010
8010
8010
8010
8010
8030
C050
6090
3F10
ENDCHAR
STARTCHAR 1EEC
ENCODING 7916
SWIDTH 648 0
DWIDTH 18 0
BBX 18 26 2 0
BITMAP
038000
044000
004000
008000
010040
000040
000080
800300
800200
800200
800200
800200
800200
800200
800200
800200
800200
800200
800200
800200
800200
400400
400400
200800
301800
0FE000
ENDCHAR
STARTCHAR 1EED
ENCODING 7917
SWIDTH 612 0
DWIDTH 17 0
BBX 15 21 3 0
BITMAP
0E00
1200
0200
0200
0406
0004
801C
8010
8010
8010
8010
8010
8010
8010
8010
8010
8010
8030
C050
6090
3F10
ENDCHAR
STARTCHAR 1EEE
ENCODING 7918
SWIDTH 648 0
DWIDTH 18 0
BBX 18 25 2 0
BITMAP
062000
092000
08C000
000040
000040
000080
800300
800200
800200
800200
800200
800200
800200
800200
800200
800200
800200
800200
800200
800200
400400
400400
200800
301800
0FE000
ENDCHAR
STARTCHAR 1EEF
ENCODING 7919
SWIDTH 576 0
DWIDTH 16 0
BBX 15 20 3 0
BITMAP
1880
2480
2100
0006
0004
801C
8010
8010
8010
8010
8010
8010
8010
8010
8010
8010
8030
C050
6090
3F10
ENDCHAR
STARTCHAR 1EF0
ENCODING 7920
SWIDTH 648 0
DWIDTH 18 0
BBX 18 28 2 -6
BITMAP
000040
000040
000080
800300
800200
800200
800200
800200
800200
800200
800200
800200
800200
800200
800200
800200
800200
400400
400400
200800
301800
0FE000
000000
000000
000000
000000
038000
010000
ENDCHAR
STARTCHAR 1EF1
ENCODING 7921
SWIDTH 612 0
DWIDTH 17 0
BBX 15 23 3 -6
BITMAP
0006
0004
801C
8010
8010
8010
8010
8010
8010
8010
8010
8010
8010
8030
C050
6090
3F10
0000
0000
0000
0000
0C00
0400
ENDCHAR
STARTCHAR 1EF2
ENCODING 7922
SWIDTH 576 0
DWIDTH 16 0
BBX 12 26 2 0
BITMAP
1000
1000
0800
0400
0400
0000
0000
8010
8010
4020
4060
2040
20C0
1080
1980
0900
0F00
0600
0600
0400
0400
0400
0400
0400
0400
0400
ENDCHAR
STARTCHAR 1EF3
ENCODING 7923
SWIDTH 504 0
DWIDTH 14 0
BBX 13 26 1 -5
BITMAP
1000
0800
0800
0400
0000
0000
8008
C010
4010
4020
2020
2040
1040
1040
1080
0880
0900
0500
0600
0600
0600
0400
0400
0800
1800
F000
ENDCHAR
STARTCHAR 1EF4
ENCODING 7924
SWIDTH 576 0
DWIDTH 16 0
BBX 12 25 2 -6
BITMAP
8010
8010
4020
4060
2040
20C0
1080
1980
0900
0F00
0600
0600
0400
0400
0400
0400
0400
0400
0400
0000
0000
0000
0000
0600
0400
ENDCHAR
STARTCHAR 1EF5
ENCODING 7925
SWIDTH 504 0
DWIDTH 14 0
BBX 13 21 1 -6
BITMAP
8008
C010
4010
4020
2020
2040
1040
1040
1080
0880
0900
0500
0600
0600
0600
0400
0400
0800
1800
F060
0040
ENDCHAR
STARTCHAR 1EF6
ENCODING 7926
SWIDTH 576 0
DWIDTH 16 0
BBX 12 26 2 0
BITMAP
0600
0900
0100
0100
0200
0000
0000
8010
8010
4020
4060
2040
20C0
1080
1980
0900
0F00
0600
0600
0400
0400
0400
0400
0400
0400
0400
ENDCHAR
STARTCHAR 1EF7
ENCODING 7927
SWIDTH 504 0
DWIDTH 14 0
BBX 13 26 1 -5
BITMAP
0700
0880
0080
0100
0200
0000
8008
C010
4010
4020
2020
2040
1040
1040
1080
0880
0900
0500
0600
0600
0600
0400
0400
0800
1800
F000
ENDCHAR
STARTCHAR 1EF8
ENCODING 7928
SWIDTH 576 0
DWIDTH 16 0
BBX 12 25 2 0
BITMAP
0800
1680
2100
0000
0000
0000
8010
8010
4020
4060
2040
20C0
1080
1980
0900
0F00
0600
0600
0400
0400
0400
0400
0400
0400
0400
ENDCHAR
STARTCHAR 1EF9
ENCODING 7929
SWIDTH 504 0
DWIDTH 14 0
BBX 13 25 1 -5
BITMAP
0C40
1280
1100
0000
0000
8008
C010
4010
4020
2020
2040
1040
1040
1080
0880
0900
0500
0600
0600
0600
0400
0400
0800
1800
F000
ENDCHAR
STARTCHAR 2013
ENCODING 8211
SWIDTH 648 0
DWIDTH 18 0
BBX 12 1 3 8
BITMAP
FFF0
ENDCHAR
STARTCHAR 2014
ENCODING 8212
SWIDTH 756 0
DWIDTH 21 0
BBX 15 1 3 8
BITMAP
FFFE
ENDCHAR
STARTCHAR 2018
ENCODING 8216
SWIDTH 252 0
DWIDTH 7 0
BBX 3 5 3 15
BITMAP
40
80
80
C0
E0
ENDCHAR
STARTCHAR 2019
ENCODING 8217
SWIDTH 252 0
DWIDTH 7 0
BBX 2 6 3 12
BITMAP
C0
C0
40
40
40
80
ENDCHAR
STARTCHAR 201A
ENCODING 8218
SWIDTH 288 0
DWIDTH 8 0
BBX 3 6 2 -4
BITMAP
E0
E0
20
20
40
80
ENDCHAR
STARTCHAR 201C
ENCODING 8220
SWIDTH 468 0
DWIDTH 13 0
BBX 8 5 3 15
BITMAP
41
82
82
C3
E3
ENDCHAR
STARTCHAR 201D
ENCODING 8221
SWIDTH 468 0
DWIDTH 13 0
BBX 8 6 3 13
BITMAP
80
C7
43
41
42
84
ENDCHAR
STARTCHAR 201E
ENCODING 8222
SWIDTH 468 0
DWIDTH 13 0
BBX 8 6 2 -4
BITMAP
E3
E3
21
21
41
02
ENDCHAR
STARTCHAR 2020
ENCODING 8224
SWIDTH 540 0
DWIDTH 15 0
BBX 10 25 3 -6
BITMAP
0800
0800
0800
0800
FFC0
0800
0800
0800
0800
0800
0800
0800
0800
0800
0800
0800
0800
0800
0800
0800
0800
0800
0800
0800
0800
ENDCHAR
STARTCHAR 2021
ENCODING 8225
SWIDTH 540 0
DWIDTH 15 0
BBX 10 25 3 -6
BITMAP
0800
0800
0800
0800
FFC0
0800
0800
0800
0800
0800
0800
0800
0800
0800
0800
0800
0800
0800
0800
FFC0
0800
0800
0800
0800
0800
ENDCHAR
STARTCHAR 2022
ENCODING 8226
SWIDTH 288 0
DWIDTH 8 0
BBX 4 3 2 8
BITMAP
F0
F0
F0
ENDCHAR
STARTCHAR 2026
ENCODING 8230
SWIDTH 720 0
DWIDTH 20 0
BBX 15 2 2 0
BITMAP
C106
C186
ENDCHAR
STARTCHAR 2030
ENCODING 8240
SWIDTH 1224 0
DWIDTH 34 0
BBX 33 20 1 0
BITMAP
3800000000
4401000000
8202000000
8202000000
8204000000
8204000000
8208000000
6C08000000
1010000000
0010000000
0020000000
0020000000
0040700C00
0041882300
0081044100
0081044100
0101044180
0101044100
02010C2100
0200F83E00
ENDCHAR
STARTCHAR 2039
ENCODING 8249
SWIDTH 324 0
DWIDTH 9 0
BBX 6 12 2 3
BITMAP
04
08
10
20
40
80
80
40
20
10
08
04
ENDCHAR
STARTCHAR 203A
ENCODING 8250
SWIDTH 324 0
DWIDTH 9 0
BBX 7 12 1 3
BITMAP
C0
60
30
18
0C
06
06
0C
18
30
60
C0
ENDCHAR
STARTCHAR 2044
ENCODING 8260
SWIDTH 432 0
DWIDTH 12 0
BBX 12 19 0 0
BITMAP
0010
0020
0020
0040
0080
0080
0100
0100
0200
0600
0400
0800
0800
1000
3000
2000
4000
4000
8000
ENDCHAR
STARTCHAR 2070
ENCODING 8304
SWIDTH 288 0
DWIDTH 8 0
BBX 7 11 1 10
BITMAP
38
44
82
82
82
82
82
82
82
44
10
ENDCHAR
STARTCHAR 2074
ENCODING 8308
SWIDTH 324 0
DWIDTH 9 0
BBX 7 10 1 11
BITMAP
0C
14
14
24
44
44
84
FE
04
04
ENDCHAR
STARTCHAR 2075
ENCODING 8309
SWIDTH 288 0
DWIDTH 8 0
BBX 7 10 1 11
BITMAP
FC
80
80
B0
CC
04
02
02
84
7C
ENDCHAR
STARTCHAR 2076
ENCODING 8310
SWIDTH 288 0
DWIDTH 8 0
BBX 7 11 1 10
BITMAP
10
20
20
40
F8
84
82
82
84
4C
20
ENDCHAR
STARTCHAR 2077
ENCODING 8311
SWIDTH 252 0
DWIDTH 7 0
BBX 6 10 1 11
BITMAP
FC
04
08
08
08
10
10
20
20
40
ENDCHAR
STARTCHAR 2078
ENCODING 8312
SWIDTH 288 0
DWIDTH 8 0
BBX 7 11 1 10
BITMAP
38
84
82
82
44
7C
82
82
82
C4
38
ENDCHAR
STARTCHAR 2079
ENCODING 8313
SWIDTH 288 0
DWIDTH 8 0
BBX 7 11 1 10
BITMAP
78
84
82
82
82
C4
3C
08
08
10
20
ENDCHAR
STARTCHAR 2080
ENCODING 8320
SWIDTH 288 0
DWIDTH 8 0
BBX 7 11 1 -7
BITMAP
38
44
82
82
82
82
82
82
82
44
38
ENDCHAR
STARTCHAR 2081
ENCODING 8321
SWIDTH 216 0
DWIDTH 6 0
BBX 5 10 1 -7
BITMAP
60
A0
20
20
20
20
20
20
20
F8
ENDCHAR
STARTCHAR 2082
ENCODING 8322
SWIDTH 288 0
DWIDTH 8 0
BBX 7 11 1 -7
BITMAP
38
44
84
84
04
0C
08
30
60
C0
FE
ENDCHAR
STARTCHAR 2083
ENCODING 8323
SWIDTH 288 0
DWIDTH 8 0
BBX 7 11 1 -7
BITMAP
38
C4
84
04
04
38
04
02
82
84
78
ENDCHAR
STARTCHAR 2084
ENCODING 8324
SWIDTH 324 0
DWIDTH 9 0
BBX 7 10 1 -7
BITMAP
0C
14
24
24
44
84
84
7E
04
04
ENDCHAR
STARTCHAR 2085
ENCODING 8325
SWIDTH 288 0
DWIDTH 8 0
BBX 7 10 1 -7
BITMAP
FC
80
80
F8
84
02
02
82
84
78
ENDCHAR
STARTCHAR 2086
ENCODING 8326
SWIDTH 288 0
DWIDTH 8 0
BBX 7 11 1 -7
BITMAP
10
10
20
40
B8
C4
82
82
82
84
78
ENDCHAR
STARTCHAR 2087
ENCODING 8327
SWIDTH 252 0
DWIDTH 7 0
BBX 6 10 1 -7
BITMAP
FC
04
08
08
10
10
10
20
20
40
ENDCHAR
STARTCHAR 2088
ENCODING 8328
SWIDTH 288 0
DWIDTH 8 0
BBX 7 11 1 -7
BITMAP
38
44
82
82
44
7C
82
82
82
82
78
ENDCHAR
STARTCHAR 2089
ENCODING 8329
SWIDTH 288 0
DWIDTH 8 0
BBX 7 11 1 -7
BITMAP
30
4C
84
82
82
84
7C
04
08
10
10
ENDCHAR
STARTCHAR 20AB
ENCODING 8363
SWIDTH 576 0
DWIDTH 16 0
BBX 15 23 1 0
BITMAP
0008
0008
0008
01FE
0008
0608
18C8
2028
4018
4008
8008
8008
8008
8008
4008
4018
2028
1CC8
0200
0000
0000
0000
3FF8
ENDCHAR
STARTCHAR 20AC
ENCODING 8364
SWIDTH 720 0
DWIDTH 20 0
BBX 17 19 1 0
BITMAP
01FC00
060600
0C0100
080080
100080
100080
100000
FFC000
200000
200000
200000
FFC000
100000
100080
100080
080180
0C0100
060600
01F800
ENDCHAR
STARTCHAR 2122
ENCODING 8482
SWIDTH 360 0
DWIDTH 10 0
BBX 8 4 2 15
BITMAP
DB
9D
95
91
ENDCHAR
STARTCHAR 215B
ENCODING 8539
SWIDTH 864 0
DWIDTH 24 0
BBX 22 19 1 0
BITMAP
600080
A00100
200200
200200
200400
200400
200800
201000
F81000
002070
002088
004084
008084
008058
0100A8
010104
020104
040084
0400F8
ENDCHAR
STARTCHAR 215C
ENCODING 8540
SWIDTH 792 0
DWIDTH 22 0
BBX 21 19 1 0
BITMAP
7C0100
840200
040200
040400
180400
040800
021000
841000
442000
3821E0
004210
008210
008210
0101A0
010150
020210
040208
040210
0801E0
ENDCHAR
STARTCHAR 215D
ENCODING 8541
SWIDTH 864 0
DWIDTH 24 0
BBX 22 20 1 0
BITMAP
7C0000
800100
800100
800200
FC0200
840400
020800
020800
841000
7C1000
002078
004088
004084
008084
008058
0100A8
020104
020104
040084
0400F8
ENDCHAR
STARTCHAR 215E
ENCODING 8542
SWIDTH 864 0
DWIDTH 24 0
BBX 21 19 2 0
BITMAP
F80100
080200
100400
100400
100800
200800
201000
402000
402000
0040F0
004108
008108
010108
0100D0
0201B8
020108
040108
080108
0800F0
ENDCHAR
STARTCHAR 2212
ENCODING 8722
SWIDTH 576 0
DWIDTH 16 0
BBX 11 1 3 8
BITMAP
FFE0
ENDCHAR
STARTCHAR 2215
ENCODING 8725
SWIDTH 468 0
DWIDTH 13 0
BBX 10 19 2 0
BITMAP
0040
0040
0080
0080
0100
0100
0200
0200
0400
0400
0800
0800
1000
1000
2000
2000
4000
4000
8000
ENDCHAR
STARTCHAR 2248
ENCODING 8776
SWIDTH 504 0
DWIDTH 14 0
BBX 9 8 3 5
BITMAP
7080
8F80
0000
0000
0000
3080
C980
8600
ENDCHAR
STARTCHAR 2260
ENCODING 8800
SWIDTH 684 0
DWIDTH 19 0
BBX 13 16 3 1
BITMAP
0010
0020
0020
0040
FFF8
0080
0100
0100
0200
0600
0400
FFF8
0800
1000
1000
2000
ENDCHAR
STARTCHAR 2264
ENCODING 8804
SWIDTH 576 0
DWIDTH 16 0
BBX 11 15 3 0
BITMAP
0040
00C0
0300
0C00
3000
4000
6000
1800
0600
0100
00C0
0000
0000
0000
FFE0
ENDCHAR
STARTCHAR 2265
ENCODING 8805
SWIDTH 576 0
DWIDTH 16 0
BBX 11 14 3 1
BITMAP
6000
1800
0600
0180
0040
00C0
0300
0C00
1000
6000
0000
0000
0000
FFE0
ENDCHAR
ENDFONT
